<svg width="16" height="11" viewBox="0 0 16 11" fill="none" xmlns="http://www.w3.org/2000/svg">
<path d="M7.625 3.84082C8.02344 3.78223 8.56836 3.34863 9.25977 2.54004C10.1797 1.46191 10.8096 0.767578 11.1494 0.457031C11.4951 0.152344 11.8408 -1.46117e-07 12.1865 -1.31006e-07C12.5322 -1.15895e-07 12.9746 -9.65578e-08 13.5137 -7.29946e-08C14.0586 -4.91753e-08 14.4717 0.246094 14.7529 0.738281C15.04 1.23633 15.1836 2.0625 15.1836 3.2168C15.1836 4.37109 14.5537 5.54297 13.2939 6.73242C12.0342 7.92187 11.0996 8.76562 10.4902 9.26367C9.88672 9.76172 9.29785 10.0928 8.72363 10.2568C8.4541 10.333 8.16406 10.3711 7.85352 10.3711C7.77734 10.3711 7.70117 10.3682 7.625 10.3623C7.54883 10.3682 7.47266 10.3711 7.39648 10.3711C7.08594 10.3711 6.7959 10.333 6.52637 10.2568C5.95215 10.0928 5.36035 9.76172 4.75098 9.26367C4.14746 8.76562 3.21582 7.92187 1.95605 6.73242C0.696289 5.54297 0.0664061 4.37109 0.0664061 3.2168C0.0664062 2.0625 0.207031 1.23633 0.488281 0.738281C0.775391 0.246093 1.18848 -6.11746e-07 1.72754 -5.88183e-07C2.27246 -5.64364e-07 2.71777 -5.44898e-07 3.06348 -5.29787e-07C3.40918 -5.14676e-07 3.75195 0.152343 4.0918 0.457031C4.4375 0.767578 5.07031 1.46191 5.99023 2.54004C6.68164 3.34863 7.22656 3.78223 7.625 3.84082Z" fill="#3A3A3A"/>
</svg>
