<svg width="32" height="30" viewBox="0 0 32 30" fill="none" xmlns="http://www.w3.org/2000/svg">
<path d="M16.1736 24.4062C15.9299 24.6892 14.937 25.5631 13.1947 27.0277C11.8058 28.9723 10.4291 29.9569 9.06453 29.9815C7.71216 29.9938 6.96288 30 6.81668 30C6.68266 30 5.88464 30 4.42262 30C2.96059 30 1.96155 29.3785 1.42547 28.1354C1.08433 27.3354 0.913764 26.5231 0.913764 25.6985C0.913764 25.2554 1.01123 24.6031 1.20617 23.7415C1.4011 22.8677 3.12507 20.2769 6.37807 15.9692C6.17095 15.6985 5.05616 14.7077 3.03369 12.9969C1.01123 11.2862 0 9.87692 0 8.76923C0 7.66154 0 6.85538 0 6.35077C0 5.84615 0.292404 4.94154 0.877213 3.63692C1.47421 2.32 2.26004 1.42154 3.23472 0.941538C4.2094 0.449231 4.83076 0.172308 5.0988 0.110769C5.37902 0.0369231 5.66533 0 5.95774 0C6.25014 0 6.85932 0 7.78527 0C8.71121 0 10.3621 1.04 12.7379 3.12C14.3705 4.54769 15.4548 5.48308 15.9909 5.92615C16.5391 5.48308 17.6295 4.54769 19.2621 3.12C21.6379 1.04 23.2888 0 24.2147 0C25.1407 0 25.7499 0 26.0423 0C26.3347 0 26.6149 0.0369231 26.8829 0.110769C27.1631 0.172308 27.7906 0.449231 28.7653 0.941538C29.74 1.42154 30.5197 2.32 31.1045 3.63692C31.7015 4.94154 32 5.84615 32 6.35077C32 6.85538 32 7.66154 32 8.76923C32 9.87692 30.9888 11.2862 28.9663 12.9969C26.9438 14.7077 25.829 15.6985 25.6219 15.9692C28.8749 20.2769 30.6476 23.0708 30.94 24.3508C31.0375 24.8062 31.0862 25.2554 31.0862 25.6985C31.0862 26.5231 30.8669 27.4462 30.4283 28.4677C29.9897 29.4892 29.0394 30 27.5774 30C26.1154 30 25.3112 30 25.165 30C25.031 30 24.3731 29.9938 23.1913 29.9815C22.0217 29.9569 20.5049 28.9723 18.6408 27.0277C17.2519 25.5631 16.4295 24.6892 16.1736 24.4062Z" fill="#EB6458"/>
</svg>
