<svg width="57" height="62" viewBox="0 0 57 62" fill="none" xmlns="http://www.w3.org/2000/svg">
<g clip-path="url(#DonutError-clip0)">
<path d="M39.4119 25.9471C39.2633 25.9471 39.1168 25.8853 39.0109 25.77L30.7125 16.6708C30.6942 16.6503 30.6759 16.6276 30.6596 16.6029C25.9456 9.44662 26.0738 9.15436 26.2204 8.81476C26.2998 8.63364 26.4463 8.29609 31.5532 5.22323C31.6387 5.17178 31.7343 5.14502 31.832 5.14502C31.887 5.14502 31.9399 5.15325 31.9928 5.16972C32.1394 5.215 32.2615 5.32202 32.3266 5.46404C32.3551 5.52784 35.3614 11.9123 41.1929 11.9123C41.6631 11.9123 42.1455 11.8712 42.6279 11.7888C42.6584 11.7847 42.6869 11.7806 42.7174 11.7806C42.9128 11.7806 43.096 11.8876 43.1937 12.0626C43.2039 12.0831 44.3274 14.1063 45.9721 16.0966C48.0787 18.6446 50.0755 19.9927 51.7486 19.9927C52.058 19.9927 52.3633 19.9454 52.6543 19.8548C52.7073 19.8384 52.7622 19.8301 52.8151 19.8301C53.0431 19.8301 53.2528 19.9742 53.3301 20.2027C53.4258 20.4846 53.2792 20.7934 53.0044 20.8963L39.6012 25.91C39.5381 25.9368 39.475 25.9471 39.4119 25.9471Z" fill="#9C662B"/>
<path d="M31.83 5.69683C31.83 5.69683 34.9279 12.4641 41.1909 12.4641C41.6794 12.4641 42.1882 12.423 42.7154 12.3345C42.7154 12.3345 47.2422 20.5466 51.7465 20.5466C52.1027 20.5466 52.4589 20.4952 52.8151 20.384L39.4119 25.3977L31.1135 16.2985C31.1135 16.2985 26.5644 9.39332 26.7191 9.0352C26.8738 8.67708 31.83 5.69683 31.83 5.69683ZM31.83 4.5957C31.6366 4.5957 31.4433 4.64716 31.2743 4.75007C26.0168 7.91143 25.8744 8.2428 25.7217 8.59269C25.4571 9.20397 25.738 9.73498 26.4015 10.8773C26.7659 11.5071 27.2849 12.353 27.9403 13.3924C29.0517 15.1521 30.1956 16.8913 30.2057 16.9077C30.2383 16.9551 30.2729 17.0004 30.3116 17.0436L38.61 26.1428C38.8196 26.3733 39.1127 26.4968 39.4099 26.4968C39.5361 26.4968 39.6643 26.4742 39.7885 26.4289L53.1673 21.4234C53.2528 21.3946 53.3321 21.3534 53.4074 21.3061C53.4828 21.2567 53.552 21.199 53.611 21.1332C53.7921 20.9356 53.9041 20.6722 53.9041 20.382C53.9041 19.818 53.4868 19.3549 52.9474 19.2891C52.9047 19.2829 52.8599 19.2808 52.8151 19.2808C52.7622 19.2808 52.7093 19.2849 52.6584 19.2932C52.5953 19.3035 52.5322 19.3179 52.4732 19.3385C52.2371 19.4105 51.9989 19.4455 51.7486 19.4455C50.2403 19.4455 48.384 18.1632 46.3792 15.7346C44.7691 13.7834 43.6782 11.8179 43.668 11.7993C43.4726 11.4474 43.1082 11.2333 42.7174 11.2333C42.6584 11.2333 42.5973 11.2375 42.5383 11.2477C42.0844 11.3239 41.6326 11.363 41.1929 11.363C35.7176 11.363 32.8477 5.29343 32.8192 5.23168C32.6889 4.94971 32.4467 4.73566 32.1516 4.6451C32.0457 4.61217 31.9379 4.5957 31.83 4.5957Z" fill="#432918"/>
<path d="M28.5183 61.4631C13.1082 61.4631 0.572052 48.7867 0.572052 33.2042C0.572052 17.6218 13.1082 4.94336 28.5183 4.94336C29.6378 4.94336 30.7736 5.01334 31.8951 5.14918C32.064 5.16976 32.2126 5.26855 32.2981 5.41468C32.3836 5.56287 32.3978 5.74193 32.3347 5.90041C32.1027 6.48288 31.9541 7.09004 31.8971 7.70544C31.7363 9.4302 32.2737 11.1735 33.3728 12.4948L34.6368 13.6598C35.5466 14.2916 36.5643 14.6703 37.6634 14.7856H37.6797C39.4302 14.7815 39.4302 14.7815 40.7206 14.3369L40.8509 14.2916C40.9079 14.271 40.9669 14.2628 41.0259 14.2628C41.1338 14.2628 41.2417 14.2957 41.3333 14.3595C41.4758 14.4583 41.5613 14.6168 41.5694 14.7918L41.6284 16.2695C41.834 17.3974 42.3083 18.4142 43.0349 19.293L43.1265 19.3856L44.4068 20.565C45.3247 21.203 46.3506 21.5817 47.4599 21.6928C47.6533 21.7114 47.8527 21.7217 48.0502 21.7217C49.5828 21.7217 51.0626 21.1742 52.2187 20.1801C52.294 20.1163 52.3673 20.0484 52.4385 19.9804C52.5403 19.8837 52.6726 19.8322 52.811 19.8322C52.8415 19.8322 52.8721 19.8343 52.9026 19.8405C53.0695 19.8693 53.214 19.9763 53.2934 20.1286C55.3654 24.1359 56.4625 28.6577 56.4625 33.2042C56.4666 48.7867 43.9284 61.4631 28.5183 61.4631ZM28.5183 25.6137C24.3803 25.6137 21.0137 29.0179 21.0137 33.2022C21.0137 37.3865 24.3803 40.7907 28.5183 40.7907C32.6563 40.7907 36.0229 37.3865 36.0229 33.2022C36.0229 29.0179 32.6563 25.6137 28.5183 25.6137Z" fill="#F59C43"/>
<path d="M28.5184 5.49517C29.6399 5.49517 30.7451 5.56515 31.83 5.69687C31.5817 6.3205 31.4188 6.98118 31.3557 7.65626C31.1807 9.53332 31.7709 11.4433 32.98 12.8799C33.4196 13.2833 33.8593 13.6888 34.2969 14.0922C35.3024 14.8002 36.4158 15.2139 37.637 15.3374C39.5788 15.3312 39.5076 15.3353 41.026 14.8146C41.0463 15.3209 41.0667 15.8252 41.087 16.3315C41.3089 17.5829 41.8259 18.6943 42.634 19.6657C42.6726 19.7049 42.7133 19.746 42.752 19.7851C43.1917 20.1885 43.6313 20.594 44.0689 20.9974C45.0744 21.7054 46.1878 22.1191 47.407 22.2426C47.6207 22.2632 47.8365 22.2735 48.0502 22.2735C49.6928 22.2735 51.315 21.6807 52.5729 20.6002C52.6543 20.5302 52.7337 20.4581 52.8131 20.384C54.7956 24.2184 55.9191 28.5777 55.9191 33.2045C55.9191 48.507 43.6496 60.9137 28.5163 60.9137C13.383 60.9137 1.11352 48.5091 1.11352 33.2045C1.11556 17.8998 13.385 5.49517 28.5184 5.49517ZM28.5184 41.3425C32.9637 41.3425 36.5684 37.6975 36.5684 33.2024C36.5684 28.7073 32.9637 25.0623 28.5184 25.0623C24.073 25.0623 20.4683 28.7073 20.4683 33.2024C20.4683 37.6995 24.073 41.3425 28.5184 41.3425ZM28.5184 4.39404C20.9079 4.39404 13.7535 7.39075 8.37181 12.8326C2.99018 18.2744 0.0266113 25.5089 0.0266113 33.2045C0.0266113 40.9 2.99018 48.1345 8.37181 53.5763C13.7535 59.0182 20.9079 62.0149 28.5184 62.0149C36.1288 62.0149 43.2833 59.0182 48.6649 53.5763C54.0465 48.1345 57.0101 40.9 57.0101 33.2045C57.0101 28.5694 55.8927 23.9591 53.7799 19.8736C53.6232 19.569 53.3321 19.357 52.9983 19.2994C52.9372 19.2891 52.8762 19.2829 52.8151 19.2829C52.5424 19.2829 52.2757 19.3879 52.0722 19.5793C52.005 19.6431 51.9358 19.7049 51.8707 19.7625C50.8123 20.6722 49.4567 21.1723 48.0543 21.1723C47.8731 21.1723 47.692 21.1641 47.5129 21.1476C46.4992 21.0468 45.5935 20.7134 44.7508 20.135C44.3356 19.7542 43.9224 19.3714 43.5072 18.9907C43.4848 18.968 43.4624 18.9454 43.44 18.9227C42.7825 18.1221 42.3673 17.233 42.174 16.2101L42.1455 15.535L42.1149 14.7734C42.1007 14.4277 41.9256 14.1066 41.6427 13.9111C41.4595 13.7835 41.2438 13.7176 41.026 13.7176C40.9079 13.7176 40.7899 13.7361 40.6759 13.7752L40.5456 13.8205C39.3427 14.2342 39.3386 14.2342 37.692 14.2404C36.6946 14.1313 35.8051 13.802 34.9767 13.2319L33.7677 12.1184C32.7785 10.9123 32.2961 9.32956 32.4406 7.76329C32.4935 7.2014 32.6279 6.64569 32.8395 6.11262C32.9657 5.79566 32.9393 5.43548 32.7663 5.14116C32.5933 4.84684 32.2961 4.64926 31.9602 4.60809C30.8184 4.46402 29.6602 4.39404 28.5184 4.39404ZM28.5184 40.2414C24.6796 40.2414 21.5572 37.0841 21.5572 33.2024C21.5572 29.3207 24.6796 26.1634 28.5184 26.1634C32.3571 26.1634 35.4795 29.3207 35.4795 33.2024C35.4795 37.0841 32.3571 40.2414 28.5184 40.2414Z" fill="#432918"/>
<path d="M37.7959 59.8148C36.5522 59.8148 35.2028 59.5843 33.782 59.1274C33.2874 59.0924 32.744 59.0492 32.0825 58.9895C31.5736 58.9421 31.0627 58.8927 30.5478 58.8434C29.874 58.7775 29.1942 58.7116 28.5164 58.6519C28.2762 58.6519 28.034 58.6499 27.7959 58.6478C27.5516 58.6458 27.3074 58.6437 27.0652 58.6437H27.0041C25.5834 59.3106 24.2563 59.6358 22.9475 59.6358C19.7153 59.6358 17.3033 57.662 14.7489 55.575C13.3322 54.4162 11.8687 53.2184 10.2343 52.3642C9.63386 52.2489 9.06801 52.0843 8.55102 51.8723C3.30779 49.7194 3.27115 43.0386 3.66195 36.9258C3.58461 36.3948 3.52354 35.8494 3.4808 35.3019C-2.14916 28.444 1.19299 24.233 5.78693 19.8264C5.91923 19.6988 6.05153 19.5733 6.18587 19.4457C6.44844 19.1966 6.71304 18.9435 6.97968 18.6841C8.39633 12.913 12.6972 9.33588 18.2396 9.33588C18.72 9.33588 19.2125 9.36264 19.7071 9.41615C20.2567 9.21239 20.7859 9.03744 21.3192 8.87896C21.3273 8.8769 21.3375 8.87485 21.3456 8.87279C22.7826 8.52701 24.0548 7.82723 25.2862 7.15009C26.7008 6.3721 28.0381 5.63733 29.5972 5.39652C29.6176 5.39446 29.6359 5.39241 29.6562 5.39035C29.7336 5.38623 29.8109 5.38623 29.8862 5.38623C30.4745 5.38623 31.0485 5.48708 31.594 5.68467C31.6489 5.70525 31.7018 5.73406 31.7487 5.77111C31.7955 5.80816 31.8443 5.84932 31.8911 5.89048L31.9563 5.94606C32.1232 6.08601 32.1924 6.31241 32.1313 6.52235C32.0173 6.91546 31.942 7.3168 31.9054 7.71198C31.7446 9.43673 32.2819 11.18 33.3811 12.5014L34.645 13.6663C35.5549 14.2982 36.5726 14.6769 37.6717 14.7921H37.688C39.4385 14.788 39.4385 14.788 40.7289 14.3434L40.8592 14.2982C40.9162 14.2776 40.9752 14.2693 41.0342 14.2693C41.1421 14.2693 41.25 14.3023 41.3416 14.3661C41.484 14.4649 41.5695 14.6233 41.5777 14.7983L41.6367 16.2761C41.8423 17.4039 42.3165 18.4207 43.0432 19.2995L43.1348 19.3921L44.415 20.5715C45.333 21.2095 46.3589 21.5882 47.4682 21.6994C47.6615 21.7179 47.861 21.7282 48.0584 21.7282C49.5911 21.7282 51.0709 21.1807 52.227 20.1866C52.4509 19.9931 52.6666 19.7791 52.8661 19.5506C52.9699 19.4333 53.1185 19.3654 53.2732 19.3654C53.2773 19.3654 53.2793 19.3654 53.2834 19.3654C53.4421 19.3675 53.5927 19.4415 53.6945 19.565C56.0434 22.4485 55.2597 26.569 54.3499 31.3399C54.126 32.5172 53.894 33.7315 53.7027 34.9705C54.0975 35.6127 54.4252 36.2445 54.6756 36.8476C56.827 42.0218 53.4055 45.1565 50.0959 48.1902C49.8761 48.3919 49.6542 48.5936 49.4344 48.7994C48.9947 49.2049 48.6548 49.528 48.3475 49.8285C45.9721 56.5464 42.5221 59.8148 37.7959 59.8148ZM25.8765 41.7954C26.7354 41.9231 27.2931 42.2503 27.9363 42.629C28.2192 42.7957 28.5123 42.9686 28.8685 43.1456C28.9764 43.1991 29.0884 43.2588 29.1962 43.3164C29.4853 43.4708 29.758 43.619 29.9616 43.619H29.9839C32.2066 43.4914 34.3581 41.2809 36.0861 39.5047C36.4525 39.128 36.7965 38.739 37.1059 38.3501C38.3658 36.7323 38.7831 35.2875 38.3719 33.9373C36.8311 31.8297 36.1594 29.6398 36.1411 26.6534C36.0637 26.4949 35.9884 26.3262 35.909 26.1533C35.7442 25.7931 35.5752 25.4206 35.3819 25.0727C35.0257 24.9575 33.951 24.7887 33.2182 24.6734C31.6957 24.4347 31.2215 24.3421 30.9833 24.2001C29.4629 23.6505 28.15 23.385 26.9736 23.385C24.0975 23.385 22.3206 24.9431 20.0674 27.8204C19.9555 28.1353 19.8578 28.4687 19.7824 28.8145C19.4303 30.3911 19.4995 32.0829 19.6115 33.5298C19.6257 33.7068 19.6542 33.89 19.6847 34.0814C19.7478 34.4745 19.8109 34.882 19.7641 35.3225C19.2899 39.7867 20.9956 40.3033 24.3927 41.3344C24.8506 41.4661 25.3636 41.6226 25.8765 41.7954Z" fill="white"/>
<path d="M29.8821 5.9312C30.4276 5.9312 30.9344 6.02588 31.4046 6.19671C31.4697 6.25022 31.5369 6.30785 31.602 6.36342C31.4799 6.78329 31.3964 7.21757 31.3557 7.65596C31.1807 9.53302 31.771 11.443 32.98 12.8796C33.4196 13.283 33.8593 13.6885 34.2969 14.0919C35.3024 14.7999 36.4158 15.2136 37.637 15.3371C39.5788 15.3309 39.5076 15.335 41.026 14.8143C41.0464 15.3206 41.0667 15.8249 41.0871 16.3312C41.3089 17.5826 41.8259 18.694 42.634 19.6654C42.6726 19.7046 42.7134 19.7457 42.752 19.7848C43.1917 20.1882 43.6313 20.5937 44.0689 20.9971C45.0744 21.7051 46.1878 22.1188 47.407 22.2423C47.6207 22.2629 47.8365 22.2732 48.0502 22.2732C49.6928 22.2732 51.315 21.6804 52.5729 20.5999C52.8212 20.3858 53.0533 20.1553 53.267 19.9104C56.0413 23.3146 54.0649 28.8552 53.1265 35.0853C53.5642 35.7789 53.9081 36.4334 54.1666 37.055C56.2998 42.1861 52.6584 45.0593 49.0598 48.3874C48.6608 48.7578 48.2599 49.1324 47.8711 49.5173C45.8906 55.1917 42.9189 59.2648 37.7917 59.2648C36.6071 59.2648 35.3085 59.0467 33.8796 58.5815C33.3016 58.5424 32.7174 58.493 32.1251 58.4395C30.9425 58.3325 29.7376 58.2028 28.5326 58.0999C28.038 58.0999 27.5475 58.0937 27.0569 58.0937C26.9959 58.0937 26.9348 58.0937 26.8737 58.0937C25.4225 58.7915 24.128 59.0858 22.9393 59.0858C18.095 59.0858 15.0093 54.212 10.4032 51.8369C9.79661 51.7257 9.24501 51.5652 8.74837 51.3614C3.75957 49.3135 3.82267 42.7932 4.20126 36.9027C4.11373 36.3038 4.04656 35.6966 4.00178 35.0833C-1.39614 28.6103 1.46769 24.7203 6.15322 20.2253C6.57862 19.8178 7.02234 19.4041 7.46403 18.9677C8.70563 13.6803 12.6096 9.88703 18.2314 9.88703C18.73 9.88703 19.2409 9.91584 19.7661 9.97759C20.3217 9.76971 20.8835 9.5783 21.4636 9.40747C24.59 8.65624 26.8432 6.37783 29.6704 5.93944C29.7437 5.93326 29.8129 5.9312 29.8821 5.9312ZM29.9615 44.1681C29.9798 44.1681 29.9961 44.1681 30.0144 44.166C32.406 44.0302 34.6083 41.8053 36.4728 39.8871C36.8453 39.5042 37.1994 39.105 37.5291 38.6913C38.8623 36.9809 39.4058 35.3282 38.8623 33.6775C37.2299 31.4753 36.6845 29.273 36.6845 26.5212C36.4117 25.9717 36.141 25.2822 35.7787 24.6648C35.5975 24.356 31.4758 23.9526 31.2397 23.7036C29.587 23.1005 28.1907 22.8289 26.9735 22.8289C23.7026 22.8289 21.7303 24.7924 19.587 27.5421C19.4486 27.9167 19.3386 28.2995 19.2511 28.6865C18.9031 30.2404 18.9377 31.8869 19.07 33.5664C19.1127 34.1262 19.2837 34.6902 19.2247 35.2562C18.7056 40.1423 20.7451 40.7947 24.2379 41.8547C24.7366 42.007 25.2454 42.1614 25.7502 42.3322C26.8839 42.4866 27.4274 43.0381 28.6242 43.6371C29.0883 43.8635 29.5218 44.1681 29.9615 44.1681ZM29.8821 4.83008C29.7986 4.83008 29.7152 4.83214 29.6297 4.83625C29.589 4.83831 29.5503 4.84243 29.5116 4.8486C27.8589 5.10382 26.4178 5.89621 25.0236 6.66392C23.8247 7.32459 22.5831 8.00585 21.2173 8.33516C21.199 8.33928 21.1827 8.34339 21.1644 8.34957C20.6576 8.49981 20.1548 8.66447 19.6358 8.85382C19.1636 8.80648 18.6954 8.78384 18.2375 8.78384C15.2821 8.78384 12.6055 9.76148 10.4968 11.6118C8.5774 13.2974 7.19535 15.6376 6.48703 18.3935C6.25906 18.6137 6.03109 18.8319 5.80923 19.0418C5.6749 19.1694 5.54056 19.297 5.40826 19.4226C0.81636 23.8291 -2.81889 28.3777 2.94947 35.5155C2.99222 35.9971 3.04514 36.4746 3.11231 36.9439C2.93319 39.7615 2.80089 42.9867 3.40337 45.8023C4.10966 49.1098 5.7726 51.3223 8.34536 52.3782C8.8705 52.5943 9.44449 52.7651 10.051 52.8865C11.6102 53.7139 13.0309 54.8768 14.4048 56.0006C16.9185 58.0567 19.5198 60.1849 22.9454 60.1849C24.301 60.1849 25.6688 59.8597 27.1221 59.1928C27.3439 59.1928 27.5678 59.1949 27.7917 59.1969C28.0258 59.199 28.2578 59.199 28.4939 59.201C29.1616 59.2587 29.8393 59.3245 30.4948 59.3904C31.0097 59.4418 31.5247 59.4912 32.0335 59.5386C32.6706 59.5962 33.1978 59.6394 33.6802 59.6744C35.1314 60.1355 36.5155 60.368 37.7958 60.368C42.75 60.368 46.3567 57.0194 48.8155 50.1327C49.0964 49.861 49.4078 49.5667 49.7986 49.2024C50.0185 48.9986 50.2403 48.7969 50.4581 48.5952C52.2187 46.9816 53.8817 45.4586 54.9096 43.6083C56.1288 41.4142 56.2143 39.1317 55.1742 36.631C54.936 36.0568 54.6307 35.462 54.2684 34.8548C54.4516 33.694 54.6694 32.5497 54.8811 31.4424C55.7766 26.7394 56.6213 22.2979 54.1096 19.2147C53.9061 18.9657 53.6069 18.8195 53.2894 18.8134C53.2833 18.8134 53.2772 18.8134 53.269 18.8134C52.9576 18.8134 52.6604 18.9471 52.4549 19.1838C52.2717 19.3938 52.0742 19.5893 51.8687 19.7642C50.8102 20.674 49.4546 21.1741 48.0522 21.1741C47.8711 21.1741 47.6899 21.1659 47.5108 21.1494C46.4972 21.0485 45.5914 20.7151 44.7488 20.1368C44.3335 19.756 43.9204 19.3732 43.5051 18.9924C43.4827 18.9698 43.4603 18.9471 43.438 18.9245C42.7805 18.1239 42.3653 17.2347 42.1719 16.2118L42.1434 15.5367L42.1129 14.7752C42.0987 14.4294 41.9236 14.1084 41.6407 13.9128C41.4575 13.7852 41.2417 13.7194 41.024 13.7194C40.9059 13.7194 40.7879 13.7379 40.6739 13.777L40.5436 13.8223C39.3407 14.236 39.3366 14.236 37.6899 14.2421C36.6926 14.1331 35.8031 13.8037 34.9747 13.2336L33.7657 12.1202C32.7765 10.9141 32.2941 9.33132 32.4386 7.76504C32.4732 7.4028 32.5424 7.03851 32.6462 6.67832C32.7683 6.25845 32.6299 5.8036 32.2981 5.52368L32.2371 5.47223C32.1841 5.42695 32.1312 5.38167 32.0803 5.34051C31.9867 5.26641 31.8829 5.20673 31.771 5.16762C31.1685 4.94122 30.5314 4.83008 29.8821 4.83008ZM20.5517 28.0834C22.6706 25.3872 24.3417 23.93 26.9735 23.9279C28.0726 23.9279 29.3101 24.179 30.7512 24.6936C31.1074 24.887 31.6977 24.9858 33.1347 25.2102C33.6985 25.2987 34.5697 25.4345 35.0154 25.5374C35.1559 25.8091 35.2861 26.0952 35.4144 26.3751C35.4775 26.513 35.5365 26.6447 35.5975 26.7744C35.6342 29.7855 36.3242 32.0228 37.8752 34.1777C38.2863 35.6904 37.3968 37.0777 36.6763 38.0018C36.3771 38.3764 36.0474 38.7489 35.6952 39.1111C34.0364 40.8174 31.9725 42.9394 29.9615 43.0608C29.8658 43.0464 29.6155 42.9126 29.4485 42.8241C29.3366 42.7644 29.2226 42.7027 29.0985 42.6409C28.7667 42.4742 28.4817 42.3075 28.2069 42.1449C27.5536 41.7621 26.9368 41.3978 26.0006 41.2496C25.4937 41.0808 24.993 40.9285 24.5493 40.7927C21.1502 39.7615 19.878 39.3766 20.3034 35.3652C20.3584 34.8548 20.2851 34.3897 20.22 33.9801C20.1915 33.799 20.165 33.6261 20.1528 33.4717C20.0429 32.066 19.9757 30.4256 20.3116 28.9211C20.3808 28.6371 20.4602 28.353 20.5517 28.0834Z" fill="#432918"/>
<path d="M53.1306 35.0849C54.0689 28.8569 56.0392 23.3183 53.267 19.9141C53.1632 20.0334 53.0533 20.1487 52.9393 20.2598C53.7351 23.6023 52.3592 28.0747 51.6224 32.9753C52.06 33.6689 52.404 34.3234 52.6625 34.945C54.7956 40.0739 51.1522 42.9492 47.5556 46.2773C47.1567 46.6478 46.7557 47.0224 46.3669 47.4072C43.9305 54.3927 39.9859 58.9495 32.3775 56.4735C31.7995 56.4344 31.2153 56.385 30.623 56.3315C29.4404 56.2224 28.2354 56.0948 27.0305 55.9919C26.4748 55.9919 25.9212 55.9837 25.3716 55.9857C18.0177 59.5217 14.6368 52.6865 8.90103 49.7268C8.29448 49.6157 7.74288 49.4572 7.2442 49.2514C6.4626 48.9303 5.81738 48.4898 5.26578 47.9691C5.98021 49.4737 7.0773 50.6736 8.75245 51.361C9.25112 51.5668 9.80069 51.7253 10.4072 51.8364C16.143 54.794 19.5239 61.6293 26.8778 58.0933C27.4274 58.0913 27.981 58.0995 28.5367 58.0995C29.7417 58.2045 30.9466 58.3321 32.1292 58.4391C32.7215 58.4926 33.3057 58.542 33.8837 58.5811C41.4941 61.0592 45.4368 56.5023 47.8752 49.5169C48.266 49.132 48.6649 48.7574 49.0639 48.3869C52.6604 45.0589 56.3038 42.1856 54.1707 37.0546C53.9122 36.433 53.5682 35.7765 53.1306 35.0849Z" fill="#D6D6D6"/>
<path d="M41.6385 23.4055C41.4573 23.4055 41.2864 23.3253 41.1581 23.1771C40.8671 22.8395 40.7714 21.971 40.7938 21.8063C40.8488 21.4112 41.1459 20.9851 41.6751 20.5323C41.7952 20.4294 41.9275 20.308 42.07 20.1763C42.2573 20.0034 42.4689 19.8099 42.6888 19.6247C42.7905 19.5403 42.9127 19.4971 43.0368 19.4971C43.1691 19.4971 43.2994 19.5444 43.4032 19.6411L44.4026 20.5611C44.4046 20.5632 44.4087 20.5653 44.4107 20.5673C44.5512 20.6661 44.6366 20.8267 44.6428 20.9995C44.6489 21.1724 44.5736 21.3371 44.4413 21.4462C44.1136 21.7158 43.7655 21.9463 43.4297 22.1706C42.9412 22.4958 42.4812 22.8025 42.0924 23.2059C41.9703 23.3335 41.8095 23.4055 41.6385 23.4055Z" fill="#FFD651"/>
<path d="M43.0389 20.0489C43.3829 20.3658 43.7269 20.6807 44.0708 20.9977C44.081 21.0039 44.0912 21.0101 44.0993 21.0162C43.3299 21.6481 42.4181 22.0741 41.7037 22.8213C41.6813 22.8439 41.6609 22.8542 41.6385 22.8542C41.4472 22.8542 41.323 21.9609 41.3332 21.8807C41.38 21.5514 41.7912 21.1541 42.0273 20.9524C42.3122 20.7096 42.6644 20.3638 43.0389 20.0489ZM43.0389 18.9478C42.7926 18.9478 42.5443 19.0321 42.3428 19.2009C42.1128 19.3944 41.897 19.594 41.7057 19.769C41.5673 19.8966 41.435 20.018 41.3251 20.1106C40.69 20.6519 40.3318 21.1953 40.2565 21.7222C40.2219 21.9795 40.3094 23.0291 40.749 23.5354C40.977 23.8009 41.3027 23.9533 41.6385 23.9533C41.956 23.9533 42.2573 23.8215 42.4853 23.5828C42.8313 23.2226 43.2669 22.9324 43.7289 22.6237C44.077 22.3932 44.4352 22.1544 44.7853 21.8663C45.0499 21.6481 45.1985 21.3188 45.1862 20.973C45.174 20.6375 45.0112 20.3267 44.7466 20.1271L44.5308 19.9295L43.7716 19.2297C43.5661 19.0424 43.3015 18.9478 43.0389 18.9478Z" fill="#432918"/>
<path d="M41.6385 50.9724C41.4553 50.9724 41.2864 50.8922 41.1581 50.744C40.8671 50.4064 40.7714 49.5379 40.7938 49.3732C40.8488 48.9801 41.1459 48.5541 41.6751 48.0992C41.7973 47.9963 41.9296 47.8728 42.07 47.7432C42.7783 47.0907 43.6597 46.2798 44.5797 46.2798C44.6977 46.2798 44.8137 46.2942 44.9257 46.321C45.2941 46.4095 45.516 46.7655 45.6055 47.4077C45.6218 47.5312 45.5974 47.6567 45.5343 47.7637C44.9847 48.7043 44.195 49.2292 43.4297 49.7375C42.9412 50.0627 42.4812 50.3673 42.0924 50.7728C41.9703 50.9004 41.8095 50.9724 41.6385 50.9724Z" fill="#FFD651"/>
<path d="M44.5818 46.8316C44.6571 46.8316 44.7303 46.8398 44.8016 46.8563C44.9644 46.8954 45.0438 47.3111 45.0682 47.482C44.25 48.8815 42.7621 49.2849 41.7057 50.3881C41.6833 50.4108 41.663 50.4211 41.6406 50.4211C41.4493 50.4211 41.3251 49.5278 41.3353 49.4475C41.3821 49.1182 41.7932 48.721 42.0294 48.5193C42.6888 47.9554 43.7065 46.8316 44.5818 46.8316ZM44.5818 45.7305C43.4521 45.7305 42.4832 46.6217 41.7057 47.3379C41.5673 47.4655 41.435 47.5869 41.3251 47.6796C40.6819 48.2312 40.3318 48.758 40.2565 49.2911C40.2219 49.5484 40.3094 50.5981 40.7491 51.1064C40.977 51.3719 41.3027 51.5242 41.6385 51.5242C41.9561 51.5242 42.2573 51.3925 42.4853 51.1558C42.8313 50.7956 43.2669 50.5054 43.7289 50.1967C44.5065 49.6801 45.3878 49.0935 46.0025 48.0439C46.1287 47.8298 46.1775 47.5787 46.145 47.3317C45.9943 46.2347 45.4672 45.8848 45.0519 45.786C44.9013 45.749 44.7426 45.7305 44.5818 45.7305Z" fill="#432918"/>
<path d="M14.2378 27.7449C14.0546 27.7449 13.8836 27.6626 13.7574 27.5144C13.4663 27.1748 13.3727 26.3062 13.3951 26.1436C13.4501 25.7526 13.7452 25.3265 14.2764 24.8717C14.3986 24.7688 14.5309 24.6453 14.6733 24.5156C15.3817 23.8632 16.263 23.0522 17.183 23.0522C17.3011 23.0522 17.4171 23.0667 17.529 23.0934C17.8974 23.1819 18.1193 23.538 18.2089 24.1781C18.2251 24.3016 18.2007 24.4271 18.1376 24.5341C17.5881 25.4747 16.7983 25.9996 16.033 26.5079C15.5445 26.8331 15.0845 27.1377 14.6957 27.5432C14.5695 27.6729 14.4067 27.7449 14.2378 27.7449Z" fill="#FFD651"/>
<path d="M17.179 23.6016C17.2543 23.6016 17.3275 23.6098 17.3988 23.6263C17.5616 23.6654 17.641 24.0812 17.6654 24.252C16.8472 25.6516 15.3593 26.055 14.3029 27.1582C14.2805 27.1808 14.2602 27.1911 14.2378 27.1911C14.0465 27.1911 13.9223 26.2978 13.9345 26.2176C13.9813 25.8883 14.3925 25.491 14.6286 25.2893C15.2881 24.7274 16.3058 23.6016 17.179 23.6016ZM17.179 22.5005C16.0493 22.5005 15.0825 23.3917 14.305 24.1079C14.1665 24.2355 14.0342 24.357 13.9243 24.4516C13.2811 25.0032 12.9311 25.5301 12.8557 26.0653C12.8211 26.3143 12.9066 27.364 13.3463 27.8765C13.5742 28.142 13.8999 28.2963 14.2378 28.2963C14.5553 28.2963 14.8566 28.1646 15.0845 27.9279C15.4305 27.5677 15.8661 27.2775 16.3282 26.9709C17.1057 26.4543 17.987 25.8677 18.6017 24.818C18.7279 24.604 18.7768 24.3529 18.7442 24.1059C18.5936 23.0109 18.0664 22.661 17.6532 22.5622C17.4985 22.519 17.3398 22.5005 17.179 22.5005Z" fill="#432918"/>
<path d="M13.8063 50.2339C12.8293 50.2339 12.0233 49.8902 11.2417 49.5568C10.7043 49.3263 10.1954 49.1101 9.64792 49.0093C9.37111 48.9578 9.16757 48.75 9.13093 48.4762C9.0434 47.832 10.0652 47.1425 10.0754 47.1384C10.2423 47.0581 10.4377 47.019 10.6717 47.019C11.0117 47.019 11.3699 47.1034 11.6121 47.1734C11.7627 47.2166 11.9378 47.2598 12.123 47.3072C13.1855 47.5727 14.5085 47.9041 14.881 48.9167C15.0112 49.2748 14.8443 49.6576 14.368 50.0898C14.2765 50.1742 14.1584 50.2236 14.0342 50.2298C13.9569 50.2319 13.8796 50.2339 13.8063 50.2339Z" fill="#FFD651"/>
<path d="M10.6717 47.5684C10.9465 47.5684 11.262 47.6425 11.4615 47.7022C12.3652 47.9636 14.0424 48.2126 14.3701 49.1079C14.4291 49.2664 14.1299 49.5649 14.0037 49.6801C13.9365 49.6842 13.8714 49.6863 13.8063 49.6863C12.3021 49.6863 11.1786 48.7334 9.74563 48.4699C9.42403 48.4102 10.2341 47.6754 10.3135 47.6363C10.4092 47.5869 10.5354 47.5684 10.6717 47.5684ZM10.6717 46.4673C10.3583 46.4673 10.0794 46.5249 9.84333 46.6402C9.61943 46.7493 9.35483 47.0024 9.17164 47.1938C8.86226 47.5211 8.5142 47.9698 8.59358 48.5481C8.66075 49.0544 9.04748 49.4558 9.55226 49.5484C10.0408 49.639 10.5232 49.8448 11.032 50.0609C11.8238 50.3984 12.7214 50.7812 13.8083 50.7812C13.8938 50.7812 13.9813 50.7792 14.0648 50.7751C14.3131 50.7607 14.5492 50.6619 14.7324 50.4952C15.3837 49.9024 15.6076 49.3055 15.3939 48.7231C14.9217 47.4367 13.3809 47.0518 12.2573 46.7698C12.0741 46.7246 11.9032 46.6813 11.7648 46.6402C11.4879 46.564 11.0748 46.4673 10.6717 46.4673Z" fill="#432918"/>
<path d="M37.0549 20.7176C36.4789 20.7176 35.9293 20.6188 35.3981 20.5241C34.8831 20.4315 34.3987 20.345 33.9021 20.345C33.843 20.345 33.784 20.3471 33.7229 20.3492C33.7148 20.3492 33.6904 20.3492 33.6904 20.3492C33.4176 20.3492 33.1836 20.1845 33.0981 19.9313C32.8925 19.3304 33.725 18.4351 33.7331 18.4268C33.9977 18.2128 34.4048 18.1099 34.9747 18.1099C35.0704 18.1099 35.1579 18.114 35.2332 18.1181C35.3899 18.1263 35.5691 18.1304 35.7604 18.1346C36.8554 18.1551 38.2192 18.1798 38.8033 19.0834C39.0089 19.4003 38.9316 19.814 38.5611 20.343C38.4899 20.4459 38.3861 20.52 38.266 20.555C37.8833 20.662 37.4864 20.7176 37.0549 20.7176Z" fill="#ED6F81"/>
<path d="M34.9767 18.6592C35.0602 18.6592 35.1395 18.6613 35.2047 18.6654C36.143 18.7169 37.8324 18.5831 38.3514 19.3816C38.443 19.5237 38.2191 19.8818 38.1214 20.0217C37.7571 20.1267 37.405 20.1679 37.0569 20.1679C35.9944 20.1679 34.9869 19.7953 33.904 19.7953C33.8369 19.7953 33.7697 19.7974 33.7005 19.7995C33.6985 19.7995 33.6944 19.7995 33.6924 19.7995C33.385 19.7995 34.0018 18.9144 34.071 18.8589C34.2725 18.6963 34.6673 18.6592 34.9767 18.6592ZM34.9767 17.5581C34.2765 17.5581 33.7595 17.7022 33.3911 17.9986C33.2405 18.12 33.0614 18.3505 32.8619 18.686C32.636 19.0667 32.3978 19.5731 32.5831 20.1123C32.7479 20.5919 33.1835 20.9006 33.6903 20.9006C33.7066 20.9006 33.731 20.9006 33.7473 20.8985C33.7982 20.8965 33.8491 20.8944 33.902 20.8944C34.3498 20.8944 34.8139 20.9767 35.3044 21.0652C35.858 21.164 36.432 21.2669 37.0549 21.2669C37.5373 21.2669 37.983 21.2052 38.4186 21.0796C38.6567 21.0097 38.8664 20.8615 39.0089 20.6557C39.5137 19.9312 39.5991 19.2993 39.2592 18.7765C38.5163 17.6301 36.9287 17.6013 35.7705 17.5807C35.5833 17.5766 35.4062 17.5746 35.2637 17.5663C35.168 17.5602 35.0703 17.5581 34.9767 17.5581Z" fill="#432918"/>
<path d="M14.3802 35.2464C14.2581 35.2464 14.1482 35.2382 14.079 35.2299C13.9548 35.2176 13.8408 35.162 13.7512 35.0735C12.9839 34.3038 12.6745 33.4002 12.3753 32.5276C12.184 31.9698 12.0028 31.4429 11.7097 30.9633C11.5856 30.7596 11.5774 30.5188 11.6873 30.3191C11.897 29.9404 12.3855 29.9404 12.5931 29.9404C12.5992 29.9404 13.1569 29.9445 13.3727 30.0351C13.7329 30.1854 14.0688 30.5805 14.3741 31.2103C14.4433 31.3523 14.5267 31.5129 14.6183 31.6837C15.1353 32.6613 15.7785 33.8757 15.2839 34.8327C15.0682 35.2464 14.5512 35.2464 14.3802 35.2464Z" fill="#ED6F81"/>
<path d="M12.5952 30.4878C12.8496 30.4878 13.1264 30.5228 13.1671 30.5414C13.4704 30.6669 13.7513 31.167 13.8856 31.449C14.2988 32.3032 15.2392 33.7295 14.8016 34.5754C14.7507 34.6721 14.5573 34.6968 14.3802 34.6968C14.2846 34.6968 14.195 34.6907 14.134 34.6845C12.9921 33.5381 12.9717 31.9821 12.1718 30.6751C12.0863 30.529 12.3265 30.4878 12.5952 30.4878ZM12.5952 29.3867C12.3428 29.3867 11.5775 29.3867 11.2131 30.0474C11.0055 30.424 11.0177 30.8727 11.2477 31.2494C11.5103 31.6775 11.6813 32.1756 11.8624 32.7045C12.1677 33.5936 12.5138 34.6001 13.3686 35.4604C13.5457 35.6374 13.7757 35.7486 14.022 35.7753C14.1055 35.7835 14.2357 35.7938 14.3802 35.7938C15.2188 35.7938 15.5954 35.4069 15.7643 35.0838C16.3933 33.8674 15.6442 32.4514 15.0967 31.4181C15.0092 31.2514 14.9257 31.093 14.8626 30.9633C14.4983 30.21 14.0668 29.7243 13.5783 29.5205C13.273 29.395 12.7051 29.3867 12.5952 29.3867Z" fill="#432918"/>
<path d="M18.7564 15.076C18.5508 15.076 18.3636 14.9751 18.2435 14.7961C17.9565 14.3721 18.1152 13.4068 18.1519 13.3059C18.2923 12.9375 18.675 12.5897 19.2917 12.2686C19.4301 12.1966 19.5868 12.1081 19.7537 12.0134C20.46 11.6121 21.3373 11.1099 22.1352 11.1099C22.3977 11.1099 22.64 11.1634 22.8537 11.2704C23.1936 11.4412 23.332 11.8364 23.275 12.4827C23.2648 12.6062 23.2119 12.7235 23.1264 12.814C22.3815 13.6064 21.4961 13.9378 20.6391 14.2609C20.0916 14.4668 19.5746 14.6602 19.1065 14.9669C19.0006 15.0389 18.8785 15.076 18.7564 15.076Z" fill="#ED6F81"/>
<path d="M22.1373 11.6617C22.3082 11.6617 22.469 11.6925 22.6136 11.7646C22.7642 11.8387 22.7499 12.2647 22.7336 12.4356C21.6243 13.6149 20.0876 13.6705 18.8114 14.5061C18.791 14.5205 18.7727 14.5267 18.7544 14.5267C18.5509 14.5267 18.6302 13.584 18.6587 13.5079C18.7768 13.1991 19.2653 12.9048 19.5401 12.7607C20.2342 12.3985 21.3089 11.6617 22.1373 11.6617ZM22.1373 10.5605C21.1969 10.5605 20.2484 11.0998 19.4872 11.5341C19.3243 11.6267 19.1696 11.7152 19.0434 11.7811C17.9321 12.3615 17.7163 12.9254 17.6451 13.1106C17.6024 13.2259 17.3378 14.4341 17.7957 15.1091C18.0155 15.4343 18.3758 15.6278 18.7564 15.6278C18.9844 15.6278 19.2083 15.5599 19.4057 15.4302C19.823 15.1565 20.3115 14.9733 20.8305 14.7778C21.7037 14.4505 22.6929 14.078 23.5234 13.195C23.6944 13.0139 23.7982 12.7793 23.8185 12.5323C23.9142 11.4312 23.4786 10.9701 23.0959 10.7808C22.8069 10.6326 22.4833 10.5605 22.1373 10.5605Z" fill="#432918"/>
<path d="M45.2982 33.0562C45.2392 33.0562 45.1802 33.0459 45.1232 33.0274C44.0994 32.6755 43.4297 32.0004 42.7824 31.35C42.3693 30.9342 41.9764 30.5391 41.5062 30.2386C41.2681 30.0863 41.1582 29.8166 41.2254 29.5491C41.3841 28.9172 42.585 28.6661 42.5972 28.6661C42.6196 28.6641 42.642 28.6641 42.6644 28.6641C43.0389 28.6641 43.4908 28.8699 44.0078 29.2774C44.1319 29.3762 44.2785 29.4832 44.4332 29.5964C45.3206 30.2447 46.4258 31.0516 46.3953 32.13C46.3851 32.5108 46.088 32.8051 45.4855 33.0233C45.4244 33.0439 45.3613 33.0562 45.2982 33.0562Z" fill="#E84242"/>
<path d="M42.6624 29.2134C42.9881 29.2134 43.4358 29.5242 43.672 29.7095C44.4128 30.294 45.8763 31.1584 45.8498 32.1134C45.8458 32.2822 45.459 32.4468 45.2983 32.5045C43.7758 31.9796 43.0817 30.5904 41.7953 29.7712C41.5205 29.5942 42.5423 29.2196 42.6298 29.2134C42.64 29.2134 42.6522 29.2134 42.6624 29.2134ZM42.6624 28.1123C42.6278 28.1123 42.5932 28.1144 42.5606 28.1164C42.3143 28.1329 41.9765 28.2667 41.7342 28.3758C41.3251 28.561 40.8387 28.8471 40.6962 29.4131C40.572 29.907 40.7796 30.4257 41.2152 30.7036C41.6365 30.9732 42.007 31.3457 42.3998 31.7388C43.0593 32.4015 43.8063 33.1548 44.9482 33.548C45.0621 33.5871 45.1802 33.6076 45.2983 33.6076C45.4244 33.6076 45.5486 33.585 45.6687 33.5418C46.4951 33.2413 46.9225 32.77 46.9388 32.1443C46.9775 30.7756 45.6911 29.835 44.7507 29.1496C44.5981 29.0385 44.4556 28.9335 44.3416 28.845C43.4135 28.1123 42.8476 28.1123 42.6624 28.1123Z" fill="#432918"/>
<path d="M34.8322 44.9565C34.5859 44.9565 34.3701 44.8145 34.2684 44.5881C34.0201 44.0303 34.6531 43.0548 34.6592 43.0465C34.9156 42.7522 35.396 42.5608 36.086 42.4764C36.2427 42.4579 36.4198 42.4291 36.6091 42.4003C37.0834 42.3241 37.6207 42.2397 38.1377 42.2397C38.8847 42.2397 39.418 42.4229 39.7681 42.8016C40.0266 43.0815 40.0184 43.4993 39.7436 44.0839C39.6907 44.1971 39.6012 44.2876 39.4892 44.3432C38.5977 44.7816 37.7164 44.8186 36.8147 44.8186H36.5012C35.9802 44.8186 35.4733 44.8269 34.9767 44.938C34.9299 44.9524 34.881 44.9565 34.8322 44.9565Z" fill="#ED6F81"/>
<path d="M38.1377 42.7916C38.6425 42.7916 39.0964 42.8842 39.3712 43.1806C39.4852 43.304 39.3244 43.6972 39.2531 43.8515C38.4451 44.2487 37.635 44.2714 36.8167 44.2714C36.7129 44.2714 36.6071 44.2714 36.5033 44.2714C35.9598 44.2714 35.4123 44.2817 34.8607 44.4052C34.8505 44.4072 34.8403 44.4093 34.8302 44.4093C34.5737 44.4093 35.0093 43.481 35.0663 43.4152C35.2841 43.1661 35.8438 43.0632 36.1491 43.0262C36.6865 42.9603 37.4579 42.7916 38.1377 42.7916ZM38.1377 41.6904C37.578 41.6904 36.9938 41.783 36.5257 41.8571C36.3404 41.886 36.1654 41.9148 36.0229 41.9312C35.1843 42.0321 34.6063 42.2791 34.2521 42.6845C34.1239 42.8307 33.9895 43.0859 33.8532 43.4419C33.6944 43.8536 33.5621 44.3393 33.7738 44.8147C33.9631 45.2428 34.3702 45.5084 34.8342 45.5084C34.9218 45.5084 35.0133 45.4981 35.1009 45.4795C35.5426 45.3808 36.0188 45.3725 36.5073 45.3725H36.662H36.8208C37.7876 45.3725 38.7361 45.3314 39.7335 44.8415C39.9553 44.7324 40.1345 44.5492 40.2403 44.3228C40.7084 43.3246 40.4601 42.7422 40.1711 42.4273C39.707 41.9312 39.0435 41.6904 38.1377 41.6904Z" fill="#432918"/>
<path d="M18.5306 44.0411C18.2924 44.0411 18.0645 44.0144 17.9118 43.9917C17.7551 43.967 17.576 43.9485 17.3867 43.9259C16.2977 43.8003 14.9442 43.646 14.4475 42.691C14.2705 42.3555 14.3885 41.9521 14.8078 41.4602C14.8892 41.3655 14.9991 41.3017 15.1192 41.2791C15.3757 41.2297 15.6281 41.207 15.8947 41.207C16.6417 41.207 17.3175 41.3964 17.9729 41.5796C18.5346 41.738 19.0679 41.8862 19.6236 41.913C19.9045 41.9274 20.1324 42.1085 20.2037 42.374C20.3726 43.0018 19.4465 43.8168 19.4384 43.823C19.2165 43.9691 18.9193 44.0411 18.5306 44.0411Z" fill="#E84242"/>
<path d="M15.8947 41.7564C17.179 41.7564 18.3005 42.3986 19.5971 42.4624C19.9228 42.4788 19.2144 43.3124 19.1412 43.3618C18.9926 43.4585 18.7626 43.4894 18.5305 43.4894C18.3331 43.4894 18.1336 43.4668 17.9932 43.4462C17.065 43.3042 15.3695 43.2774 14.9299 42.4336C14.8526 42.2854 15.109 41.9499 15.221 41.8181C15.451 41.7749 15.6749 41.7564 15.8947 41.7564ZM15.8947 40.6553C15.5995 40.6553 15.3044 40.682 15.0195 40.7355C14.7772 40.7808 14.5554 40.9105 14.3946 41.0978C13.8206 41.7708 13.6761 42.3944 13.9671 42.9481C14.5981 44.1583 16.1735 44.3374 17.3256 44.4712C17.5128 44.4917 17.6879 44.5123 17.8304 44.535C18.0013 44.5617 18.2598 44.5905 18.5305 44.5905C19.0292 44.5905 19.4241 44.4897 19.7355 44.2839C19.9411 44.148 20.1711 43.864 20.3278 43.6479C20.5945 43.2836 20.8794 42.7917 20.7288 42.2277C20.5965 41.7358 20.163 41.388 19.65 41.3612C19.1534 41.3365 18.6506 41.1945 18.1174 41.0463C17.4599 40.8631 16.715 40.6553 15.8947 40.6553Z" fill="#432918"/>
<path d="M25.8804 21.6085C25.8214 21.6085 25.7623 21.5982 25.7053 21.5796C24.6815 21.2277 24.0119 20.5526 23.3646 19.9022C22.9514 19.4865 22.5586 19.0913 22.0884 18.7908C21.8503 18.6385 21.7403 18.3689 21.8075 18.1013C21.9663 17.4715 23.1672 17.2184 23.1773 17.2184C23.1997 17.2163 23.2221 17.2163 23.2445 17.2163C23.619 17.2163 24.0709 17.4221 24.5879 17.8296C24.7121 17.9284 24.8586 18.0334 25.0133 18.1466C25.9007 18.7949 27.006 19.6017 26.9775 20.6823C26.9653 21.0651 26.6681 21.3574 26.0656 21.5776C26.0066 21.5982 25.9435 21.6085 25.8804 21.6085Z" fill="#E84242"/>
<path d="M23.2445 17.7661C23.5702 17.7661 24.018 18.0768 24.2541 18.2621C24.995 18.8466 26.4585 19.711 26.432 20.666C26.4279 20.8348 26.0392 20.9995 25.8804 21.0571C24.3579 20.5323 23.6638 19.143 22.3775 18.3238C22.1027 18.1489 23.1245 17.7722 23.212 17.7661C23.2242 17.7681 23.2344 17.7661 23.2445 17.7661ZM23.2445 16.667C23.2099 16.667 23.1753 16.6691 23.1428 16.6711C22.8965 16.6876 22.5586 16.8214 22.3164 16.9304C21.9073 17.1157 21.4208 17.4018 21.2783 17.9678C21.1542 18.4617 21.3618 18.9804 21.7974 19.2582C22.2187 19.5279 22.5891 19.9004 22.982 20.2935C23.6414 20.9563 24.3884 21.7095 25.5303 22.1027C25.6443 22.1418 25.7624 22.1623 25.8804 22.1623C26.0066 22.1623 26.1308 22.1397 26.2509 22.0965C27.0752 21.796 27.5026 21.3267 27.521 20.701C27.5576 19.3282 26.2712 18.3897 25.3329 17.7023C25.1802 17.5911 25.0377 17.4862 24.9238 17.3976C24.3091 16.9119 23.7432 16.667 23.2445 16.667Z" fill="#432918"/>
<path d="M50.4397 28.1173C50.3807 28.1173 50.3217 28.107 50.2647 28.0884C49.2429 27.7365 48.5712 27.0635 47.924 26.411C47.5087 25.9953 47.1179 25.6001 46.6457 25.2996C46.4076 25.1473 46.2977 24.8777 46.3628 24.6101C46.5216 23.9803 47.7225 23.7272 47.7347 23.7272C47.7571 23.7251 47.7794 23.7251 47.8018 23.7251C48.1763 23.7251 48.6282 23.9309 49.1452 24.3384C49.2694 24.4372 49.4159 24.5422 49.5706 24.6554C50.4581 25.3037 51.5633 26.1126 51.5348 27.1911C51.5246 27.5718 51.2274 27.8641 50.625 28.0843C50.5659 28.107 50.5028 28.1173 50.4397 28.1173Z" fill="#8AD0E5"/>
<path d="M47.8039 24.2745C48.1295 24.2745 48.5753 24.5853 48.8114 24.7705C49.5523 25.355 51.0178 26.2194 50.9913 27.1744C50.9873 27.3432 50.6005 27.5079 50.4397 27.5655C48.9172 27.0407 48.2232 25.6514 46.9368 24.8322C46.662 24.6552 47.6838 24.2806 47.7713 24.2745C47.7815 24.2765 47.7937 24.2745 47.8039 24.2745ZM47.8039 23.1733C47.7693 23.1733 47.7347 23.1754 47.7021 23.1775C47.4558 23.1939 47.1159 23.3277 46.8757 23.4368C46.4666 23.622 45.9801 23.9081 45.8377 24.4741C45.7135 24.9681 45.9211 25.4867 46.3567 25.7646C46.778 26.0342 47.1485 26.4067 47.5413 26.8019C48.2008 27.4646 48.9478 28.2179 50.0896 28.611C50.2036 28.6502 50.3217 28.6707 50.4397 28.6707C50.5659 28.6707 50.6901 28.6481 50.8102 28.6049C51.6366 28.3023 52.062 27.8331 52.0782 27.2074C52.1169 25.8387 50.8285 24.9002 49.8902 24.2127C49.7375 24.1016 49.595 23.9966 49.481 23.9081C48.8664 23.4203 48.3025 23.1733 47.8039 23.1733Z" fill="#432918"/>
<path d="M6.52362 32.7106C6.4646 32.7106 6.40557 32.7003 6.34858 32.6818C5.32476 32.3299 4.65511 31.6548 4.00785 31.0023C3.59466 30.5866 3.20386 30.1935 2.73165 29.8909C2.4935 29.7386 2.38359 29.469 2.45076 29.2014C2.60952 28.5696 3.81042 28.3185 3.82263 28.3185C3.84502 28.3164 3.86741 28.3164 3.8898 28.3164C4.26431 28.3164 4.71618 28.5222 5.23317 28.9297C5.35937 29.0285 5.50388 29.1356 5.66061 29.2488C6.54805 29.8971 7.65124 30.7039 7.62071 31.7824C7.61053 32.1652 7.31336 32.4575 6.70885 32.6756C6.64778 32.7003 6.58672 32.7106 6.52362 32.7106Z" fill="#8AD0E5"/>
<path d="M3.88773 28.8682C4.21339 28.8682 4.66119 29.179 4.89729 29.3642C5.63615 29.9488 7.10165 30.8132 7.07519 31.7682C7.07112 31.937 6.68439 32.1016 6.52359 32.1592C5.0011 31.6344 4.30702 30.2451 3.02064 29.426C2.74382 29.251 3.76764 28.8744 3.85516 28.8682C3.86737 28.8682 3.87755 28.8682 3.88773 28.8682ZM3.88773 27.7671C3.85313 27.7671 3.81852 27.7691 3.78596 27.7712C3.53967 27.7877 3.20179 27.9215 2.95958 28.0305C2.55046 28.2158 2.064 28.5019 1.92152 29.0679C1.79736 29.5618 2.007 30.0805 2.44055 30.3583C2.85984 30.6259 3.23029 30.9984 3.62312 31.3936C4.2826 32.0584 5.03163 32.8096 6.1735 33.2027C6.28748 33.2418 6.40554 33.2624 6.52359 33.2624C6.64775 33.2624 6.77395 33.2398 6.89403 33.1966C7.92192 32.822 8.15192 32.2292 8.16413 31.7991C8.20077 30.4304 6.91642 29.4918 5.9781 28.8044C5.82544 28.6933 5.68093 28.5883 5.56695 28.4977C4.95021 28.0141 4.3864 27.7671 3.88773 27.7671Z" fill="#432918"/>
<path d="M44.6999 42.1144C44.6408 42.1144 44.5818 42.1041 44.5248 42.0855C43.501 41.7336 42.8313 41.0606 42.1841 40.4081C41.7709 39.9924 41.3781 39.5992 40.9079 39.2967C40.6697 39.1444 40.5598 38.8748 40.625 38.6072C40.7817 37.9774 41.9846 37.7242 41.9948 37.7242C42.0192 37.7222 42.0396 37.7222 42.064 37.7222C42.4385 37.7222 42.8904 37.928 43.4074 38.3355C43.5315 38.4343 43.6781 38.5413 43.8328 38.6545C44.7202 39.3029 45.8254 40.1097 45.7949 41.1902C45.7868 41.571 45.4876 41.8653 44.8851 42.0835C44.824 42.1041 44.763 42.1144 44.6999 42.1144Z" fill="#8AD0E5"/>
<path d="M42.0639 38.274C42.3896 38.274 42.8354 38.5848 43.0715 38.77C43.8124 39.3545 45.2758 40.219 45.2494 41.1739C45.2453 41.3427 44.8586 41.5074 44.6978 41.565C43.1753 41.0422 42.4812 39.653 41.1948 38.8317C40.92 38.6547 41.9418 38.2802 42.0293 38.274C42.0416 38.274 42.0538 38.274 42.0639 38.274ZM42.0639 37.1729C42.0293 37.1729 41.9947 37.1749 41.9622 37.177C41.7138 37.1934 41.376 37.3272 41.1358 37.4363C40.7267 37.6215 40.2402 37.9076 40.0977 38.4736C39.9736 38.9676 40.1832 39.4862 40.6168 39.762C41.0381 40.0317 41.4085 40.4042 41.8014 40.7973C42.4609 41.4621 43.2099 42.2133 44.3518 42.6064C44.4657 42.6456 44.5838 42.6661 44.7018 42.6661C44.826 42.6661 44.9522 42.6435 45.0703 42.6003C46.1022 42.2257 46.3302 41.6309 46.3404 41.1987C46.379 39.8341 45.0926 38.8935 44.1523 38.2061C43.9996 38.0949 43.8551 37.9899 43.7432 37.8994C43.1264 37.4178 42.5626 37.1729 42.0639 37.1729Z" fill="#432918"/>
<path d="M28.4328 16.1856C28.2191 16.1856 28.0237 16.0724 27.9076 15.8851C27.6369 15.4446 27.8873 14.467 27.9361 14.3661C28.1091 14.0142 28.5223 13.7013 29.1655 13.4379C29.3121 13.3782 29.4769 13.3041 29.652 13.2238C30.3257 12.9192 31.1643 12.5405 31.9093 12.5405C32.2512 12.5405 32.5525 12.6208 32.8028 12.7772C33.1224 12.9769 33.2241 13.3844 33.1122 14.0204C33.0898 14.1439 33.0267 14.255 32.9351 14.3394C32.1209 15.0577 31.2091 15.3067 30.3257 15.5455C29.7619 15.6998 29.2286 15.8439 28.734 16.1053C28.6404 16.1588 28.5386 16.1856 28.4328 16.1856Z" fill="white"/>
<path d="M31.9113 13.0922C32.1373 13.0922 32.3449 13.1375 32.5199 13.2466C32.6624 13.3351 32.6095 13.757 32.579 13.9258C31.3679 14.996 29.8291 14.9075 28.4837 15.6197C28.4654 15.63 28.4471 15.6341 28.4328 15.6341C28.2211 15.6341 28.388 14.6853 28.4247 14.6091C28.5712 14.3127 29.0842 14.0658 29.3711 13.9484C30.053 13.6726 31.1013 13.0922 31.9113 13.0922ZM31.9113 11.9932C31.0504 11.9932 30.1527 12.3986 29.4322 12.7238C29.2612 12.802 29.0984 12.8741 28.9641 12.9296C28.1825 13.2507 27.6879 13.6397 27.4497 14.1234C27.3927 14.2407 27.0101 15.4694 27.4456 16.1795C27.6614 16.5294 28.0298 16.7393 28.4328 16.7393C28.6262 16.7393 28.8155 16.692 28.9905 16.5973C29.4302 16.3647 29.935 16.2268 30.4682 16.0828C31.3679 15.8378 32.3856 15.562 33.2934 14.7594C33.4807 14.5947 33.6048 14.3704 33.6496 14.1234C33.8043 13.2507 33.615 12.6415 33.0899 12.3142C32.752 12.1002 32.3551 11.9932 31.9113 11.9932Z" fill="#432918"/>
<path d="M46.9958 38.8233C46.7821 38.8233 46.5867 38.7121 46.4707 38.5228C46.2 38.0844 46.4504 37.1047 46.4992 37.0038C46.6722 36.6498 47.0854 36.337 47.7286 36.0756C47.8751 36.0159 48.04 35.9418 48.2151 35.8615C48.8888 35.5569 49.7274 35.1782 50.4723 35.1782C50.8143 35.1782 51.1155 35.2585 51.3659 35.4149C51.6854 35.6125 51.7872 36.02 51.6753 36.6581C51.6529 36.7815 51.5898 36.8947 51.4962 36.9771C50.682 37.6954 49.7701 37.9444 48.8868 38.1832C48.3229 38.3375 47.7897 38.4816 47.2971 38.743C47.2035 38.7965 47.0997 38.8233 46.9958 38.8233Z" fill="white"/>
<path d="M50.4744 35.732C50.7003 35.732 50.9079 35.7773 51.083 35.8864C51.2255 35.9749 51.1705 36.3968 51.142 36.5656C49.9309 37.6358 48.3942 37.5473 47.0468 38.2594C47.0284 38.2697 47.0101 38.2739 46.9959 38.2739C46.7822 38.2739 46.9511 37.325 46.9877 37.2489C47.1343 36.9525 47.6472 36.7035 47.9342 36.5882C48.6161 36.3103 49.6643 35.732 50.4744 35.732ZM50.4744 34.6309C49.6134 34.6309 48.7158 35.0363 47.9953 35.3615C47.8243 35.4397 47.6614 35.5118 47.5271 35.5673C46.7455 35.8864 46.2489 36.2774 46.0128 36.7611C45.9558 36.8805 45.5731 38.1071 46.0087 38.8152C46.2244 39.1651 46.5929 39.375 46.9959 39.375C47.1892 39.375 47.3765 39.3276 47.5536 39.233C47.9932 39.0004 48.498 38.8625 49.0313 38.7164C49.9289 38.4714 50.9486 38.1936 51.8564 37.393C52.0437 37.2283 52.1699 37.0019 52.2126 36.7549C52.3653 35.8822 52.176 35.273 51.6509 34.9478C51.315 34.7379 50.9181 34.6309 50.4744 34.6309Z" fill="#432918"/>
<path d="M7.44766 44.1068C6.6681 44.1068 6.4727 42.6517 6.4727 42.6373C6.47066 42.2462 6.70067 41.779 7.16067 41.2542C7.26448 41.1348 7.37846 40.9928 7.50058 40.8425C8.16209 40.0254 8.98644 39.0107 9.99193 39.0107C10.0347 39.0107 10.0774 39.0128 10.1202 39.0169C10.4926 39.0498 10.7654 39.3668 10.9465 39.9884C10.9811 40.1098 10.975 40.2374 10.9282 40.3547C10.5191 41.3653 9.81282 42.0013 9.13095 42.6146C8.69537 43.0077 8.28218 43.3782 7.95652 43.8372C7.83643 44.008 7.64917 44.1068 7.44766 44.1068Z" fill="white"/>
<path d="M9.9919 39.5601C10.0184 39.5601 10.0448 39.5622 10.0713 39.5642C10.2382 39.5786 10.3766 39.98 10.4254 40.1446C9.81685 41.6492 8.40224 42.2666 7.51683 43.5139C7.49444 43.5448 7.47205 43.5571 7.44966 43.5571C7.2624 43.5571 7.01815 42.7174 7.01815 42.6371C7.01612 42.3057 7.36621 41.8509 7.56975 41.6162C8.17223 40.9247 9.08003 39.5601 9.9919 39.5601ZM9.9919 38.459C8.7279 38.459 7.77533 39.6342 7.07922 40.4925C6.95913 40.6386 6.84718 40.7786 6.75151 40.8876C6.19177 41.5298 5.9231 42.104 5.92717 42.6453C5.92717 42.9129 6.06354 43.3122 6.14699 43.5262C6.25487 43.8061 6.58257 44.6582 7.44763 44.6582C7.82621 44.6582 8.17427 44.475 8.4002 44.156C8.68923 43.7485 9.08003 43.3966 9.49322 43.0261C10.1873 42.4004 10.975 41.6924 11.433 40.5624C11.5266 40.3299 11.5388 40.0726 11.4696 39.8318C11.2193 38.9818 10.7816 38.5228 10.1669 38.4693C10.11 38.461 10.0509 38.459 9.9919 38.459Z" fill="#432918"/>
<path d="M9.15332 26.8247C8.37783 26.8247 8.17836 25.3716 8.17836 25.3572C8.17632 24.9661 8.40836 24.4989 8.86633 23.972C8.97217 23.8506 9.08615 23.7107 9.20624 23.5604C9.86775 22.7433 10.6921 21.7266 11.6996 21.7266C11.7424 21.7266 11.7851 21.7286 11.8279 21.7327C12.2003 21.7657 12.4711 22.0826 12.6563 22.7021C12.6929 22.8236 12.6868 22.9532 12.638 23.0685C12.2288 24.0791 11.5225 24.715 10.8407 25.3284C10.4051 25.7215 9.99191 26.092 9.66625 26.5509C9.54005 26.7259 9.35483 26.8247 9.15332 26.8247Z" fill="white"/>
<path d="M11.6975 22.2759C11.724 22.2759 11.7505 22.278 11.7769 22.28C11.9438 22.2945 12.0822 22.6958 12.1311 22.8604C11.5205 24.365 10.1079 24.9824 9.22045 26.2297C9.20009 26.2606 9.17567 26.2729 9.15328 26.2729C8.96602 26.2729 8.72177 25.4332 8.72177 25.3529C8.71974 25.0215 9.06983 24.5687 9.27337 24.3341C9.87789 23.6426 10.7836 22.2759 11.6975 22.2759ZM11.6975 21.1748C10.4336 21.1748 9.47895 22.3521 8.78284 23.2103C8.66478 23.3565 8.5508 23.4964 8.45717 23.6035C7.89947 24.2477 7.62876 24.8198 7.63283 25.357C7.63283 25.3755 7.82619 27.372 9.15328 27.372C9.53187 27.372 9.87789 27.1888 10.1059 26.8698C10.3969 26.4623 10.7857 26.1103 11.1989 25.7378C11.895 25.1121 12.6827 24.4041 13.1386 23.2741C13.2323 23.0416 13.2465 22.7822 13.1732 22.5394C12.9208 21.6914 12.4832 21.2345 11.8706 21.1789C11.8156 21.1789 11.7566 21.1748 11.6975 21.1748Z" fill="#432918"/>
<g opacity="0.6">
<g opacity="0.6">
<path opacity="0.6" d="M14.7895 12.4644C12.9088 13.4647 10.9609 14.4938 10.2363 16.659C9.81288 17.9248 11.7852 18.4619 12.2045 17.2085C12.7195 15.6649 14.5066 14.9445 15.8194 14.2468C16.9837 13.6252 15.9517 11.8449 14.7895 12.4644Z" fill="white"/>
</g>
<g opacity="0.6">
<path opacity="0.6" d="M8.95192 21.5434C8.98245 21.5434 9.01299 21.5434 9.04352 21.5434C9.59919 21.5434 10.0633 21.0741 10.0633 20.5101C10.0633 19.9483 9.59919 19.479 9.04352 19.479C9.01299 19.479 8.98245 19.479 8.95192 19.479C8.39625 19.479 7.93015 19.9483 7.93015 20.5101C7.93015 21.0741 8.39625 21.5434 8.95192 21.5434Z" fill="white"/>
</g>
</g>
<path d="M39.9614 6.75561C38.9417 6.75561 37.7 6.46747 37.2685 5.66066C37.0915 5.32723 36.9815 4.77358 37.468 4.0244C37.6675 3.71774 37.8995 3.49134 38.1071 3.29169C38.3493 3.05706 38.559 2.8533 38.7076 2.54663C38.7401 2.47871 38.7686 2.40667 38.7951 2.34081C38.9254 2.01768 39.1208 1.52783 39.7884 1.52783C39.9024 1.52783 40.0265 1.54224 40.1629 1.57311C41.0483 1.76658 41.2417 2.62278 41.3699 3.18878L41.378 3.22377C41.4961 3.74655 41.5734 3.8227 41.7973 4.05116C41.9093 4.16436 42.0477 4.30843 42.2248 4.5266C42.6522 5.06173 42.5912 5.49806 42.4629 5.76768C42.1169 6.49422 40.9445 6.75561 39.9614 6.75561Z" fill="#F59C43"/>
<path d="M39.7884 1.91844C39.8718 1.91844 39.9695 1.92873 40.0815 1.95343C40.7389 2.09751 40.8753 2.76024 41.0015 3.30977C41.2071 4.2092 41.376 4.08777 41.9235 4.77314C42.7377 5.794 41.3821 6.36411 39.9634 6.36411C38.4389 6.36411 36.8431 5.7055 37.7937 4.24007C38.1865 3.63497 38.7361 3.38387 39.0577 2.71908C39.2409 2.33008 39.2795 1.91844 39.7884 1.91844ZM39.7884 1.13428C38.8582 1.13428 38.5732 1.84847 38.4348 2.19218C38.4084 2.25804 38.3839 2.32185 38.3575 2.37536C38.2394 2.61823 38.0624 2.79111 37.8364 3.00928C37.6146 3.22333 37.3642 3.4662 37.1423 3.80991C36.5215 4.76902 36.7414 5.49762 36.9266 5.84751C37.5718 7.0536 39.4118 7.14828 39.9594 7.14828C40.4926 7.14828 42.2777 7.06184 42.8089 5.93807C42.9535 5.63346 43.1061 5.01395 42.524 4.28329C42.3367 4.0466 42.1841 3.89224 42.0721 3.77698C41.8747 3.57528 41.8503 3.55058 41.7566 3.13689L41.7485 3.1019C41.6162 2.51943 41.3699 1.43683 40.2443 1.19191C40.0794 1.15074 39.9309 1.13428 39.7884 1.13428Z" fill="#432918"/>
<path d="M41.9215 4.77354C41.374 4.08817 41.205 4.2096 40.9995 3.31018C40.8753 2.76064 40.7369 2.09791 40.0795 1.95383C39.6378 1.8571 39.4363 1.96618 39.308 2.15965C39.6968 2.41693 39.8128 2.93353 39.9126 3.3781C40.1181 4.27752 40.2871 4.15609 40.8346 4.84146C41.4778 5.64827 40.7654 6.17311 39.7375 6.35834C41.2315 6.42009 42.7784 5.84586 41.9215 4.77354Z" fill="#F59C43"/>
<path d="M50.1283 3.44329C49.9166 3.44329 49.5238 3.36097 49.2511 2.80937C49.1554 2.6159 49.1126 2.43478 49.074 2.2763C49.0333 2.10959 49.0027 1.97787 48.9213 1.85438C48.901 1.8235 48.8786 1.79469 48.8582 1.76793C48.728 1.5971 48.4226 1.19987 48.8847 0.687386C49.0597 0.493917 49.2918 0.393066 49.5584 0.393066C49.7721 0.393066 49.9736 0.456871 50.1344 0.508326C50.2688 0.551547 50.3481 0.568013 50.399 0.568013C50.4336 0.568013 50.4682 0.559779 50.5456 0.539197C50.627 0.518615 50.7389 0.489802 50.8957 0.465104C50.9588 0.454813 51.0178 0.450697 51.0707 0.450697C51.5389 0.450697 51.8421 0.773831 51.8421 1.27191C51.8421 2.08695 51.0117 3.44329 50.1283 3.44329Z" fill="#F59C43"/>
<path d="M49.5584 0.782108C49.7192 0.782108 49.8861 0.837678 50.0388 0.885017C50.2057 0.936471 50.3115 0.957054 50.3991 0.957054C50.5578 0.957054 50.6596 0.895308 50.9547 0.850028C50.9975 0.843853 51.0362 0.839738 51.0728 0.839738C52.0376 0.839738 50.9792 3.05228 50.1304 3.05228C49.933 3.05228 49.7457 2.93291 49.5992 2.63447C49.4282 2.28664 49.4628 1.9635 49.245 1.6342C49.0984 1.41191 48.8806 1.27196 49.1717 0.948821C49.2837 0.82533 49.418 0.782108 49.5584 0.782108ZM49.5584 0C49.1799 0 48.8481 0.14613 48.5998 0.421926C48.2883 0.765642 48.0278 1.32135 48.5529 2.00673C48.5692 2.02731 48.5855 2.04789 48.6018 2.07053C48.6445 2.13433 48.6649 2.21666 48.7015 2.36691C48.7422 2.53774 48.7931 2.74973 48.9071 2.98436C49.2857 3.75206 49.8902 3.83645 50.1324 3.83645C51.2723 3.83645 52.233 2.25988 52.233 1.2699C52.233 0.555708 51.7567 0.0576288 51.0748 0.0576288C50.9995 0.0576288 50.9201 0.0638034 50.8408 0.0761525C50.6637 0.102909 50.5416 0.13584 50.452 0.15848C50.4316 0.162596 50.4154 0.168771 50.397 0.172887C50.3787 0.168771 50.34 0.160538 50.2729 0.137898L50.2546 0.131723C50.0734 0.0761525 49.8292 0 49.5584 0Z" fill="#432918"/>
<path d="M50.9526 0.85015C50.4926 0.920128 50.5028 1.03333 50.0367 0.887198C49.7517 0.796638 49.4118 0.683437 49.1696 0.951001C49.0068 1.13212 49.0027 1.25355 49.0556 1.36675C49.2775 1.25355 49.5441 1.34 49.7762 1.41203C50.2423 1.55817 50.2321 1.44702 50.6921 1.37499C51.2335 1.29266 51.2803 1.76604 51.089 2.29499C51.5205 1.61579 51.6752 0.739008 50.9526 0.85015Z" fill="#F59C43"/>
<path d="M50.804 12.7284C50.7816 12.7284 50.7592 12.7263 50.7368 12.7222L50.4376 12.6728C50.2646 12.644 50.1323 12.502 50.116 12.325C50.1038 12.1994 50.0611 12.0286 50.0163 11.8495C49.8616 11.2362 49.6275 10.3059 50.3725 9.71108C50.6839 9.46204 51.2498 9.37354 51.6752 9.37354C52.0171 9.37354 52.64 9.43116 52.9554 9.8181C53.4846 10.4664 53.0755 11.7816 52.5443 12.2344C52.3021 12.4402 51.9927 12.467 51.7505 12.467C51.6833 12.467 51.6161 12.4649 51.549 12.4629C51.4899 12.4608 51.433 12.4587 51.378 12.4587C51.207 12.4587 51.1622 12.4793 51.1541 12.4834C51.0951 12.6358 50.9587 12.7284 50.804 12.7284Z" fill="#F59C43"/>
<path d="M51.6732 9.76415C52.0803 9.76415 52.4813 9.85265 52.6543 10.0667C53.0247 10.5195 52.6889 11.5959 52.294 11.9335C52.1556 12.0508 51.9561 12.0734 51.7485 12.0734C51.6244 12.0734 51.4961 12.0652 51.374 12.0652C51.1135 12.0652 50.8855 12.1022 50.798 12.3348L50.4988 12.2854C50.4377 11.6618 49.88 10.5998 50.6087 10.0173C50.8061 9.86294 51.2437 9.76415 51.6732 9.76415ZM51.6732 8.97998C51.4351 8.97998 50.6209 9.01085 50.1304 9.40191C49.188 10.1552 49.4811 11.3181 49.6378 11.9438C49.6785 12.1022 49.7192 12.2648 49.7274 12.3616C49.762 12.7135 50.0245 12.9996 50.3705 13.0572L50.6698 13.1066C50.7125 13.1128 50.7552 13.1169 50.798 13.1169C51.0239 13.1169 51.2376 13.0161 51.3842 12.8473C51.433 12.8473 51.4839 12.8494 51.5328 12.8514C51.604 12.8535 51.6752 12.8555 51.7465 12.8555C52.0314 12.8555 52.4487 12.8226 52.7907 12.5303C53.4623 11.9582 53.9346 10.4042 53.2507 9.56656C52.8558 9.08083 52.1739 8.97998 51.6732 8.97998Z" fill="#432918"/>
<path d="M52.6543 10.0664C52.5994 10.0005 52.522 9.94703 52.4284 9.90381C52.4447 10.4039 52.1943 11.0255 51.9094 11.2684C51.5084 11.61 50.6108 11.149 50.4154 11.6718L50.3665 11.6636C50.4235 11.892 50.4825 12.1081 50.4988 12.2872L50.798 12.3366C50.9934 11.8138 51.891 12.2748 52.292 11.9332C52.6889 11.5936 53.0248 10.5171 52.6543 10.0664Z" fill="#F59C43"/>
</g>
<defs>
<clipPath id="DonutError-clip0">
<rect width="57" height="62" fill="white"/>
</clipPath>
</defs>
</svg>
