<svg width="377" height="448" viewBox="0 0 377 448" fill="none" xmlns="http://www.w3.org/2000/svg">
<path d="M235.874 397.888C219.139 406.17 206.657 406.648 198.865 402.354C198.74 402.543 198.626 402.716 198.501 402.886C195.856 406.816 192.92 410.541 189.717 414.032C148.627 458.921 76.2388 450.149 50.5462 408.965H50.5804C37.043 406.034 26.9631 397.82 19.7046 386.174C3.0382 359.406 1.26676 314.517 6.75006 274.162C7.4813 268.799 9.26454 263.634 11.9977 258.961C14.7308 254.288 18.3602 250.2 22.6778 246.929L58.3877 219.889L258.217 273.98L265.088 315.018C261.173 326.482 255.883 336.065 249.787 343.886C249.99 343.898 250.195 343.92 250.4 343.943C272.47 346.274 271.887 379.471 235.874 397.888Z" fill="#6CBFF6"/>
<g opacity="0.55">
<path opacity="0.55" d="M49.2876 408.658C5.79516 397.998 -1.04188 331.503 6.75018 274.162C7.48141 268.799 9.26466 263.634 11.9978 258.961C14.7309 254.288 18.3603 250.2 22.678 246.929L58.3878 219.889L258.217 273.98L258.407 275.163L68.7981 223.831L33.0864 250.871C28.7696 254.142 25.1409 258.231 22.4082 262.904C19.6754 267.577 17.8922 272.742 17.1605 278.104C10.0386 330.526 15.1346 390.582 49.2876 408.658Z" fill="#478FE4"/>
</g>
<g opacity="0.55">
<path opacity="0.55" d="M50.8687 409.457C50.3333 409.206 49.7978 408.945 49.2871 408.66C49.7067 408.774 50.151 408.876 50.5839 408.967H50.5497C50.6522 409.138 50.7548 409.297 50.8687 409.457Z" fill="#FF395D"/>
</g>
<path d="M60.799 223.058L35.0989 242.516L28.67 247.382L25.4575 249.814C24.4227 250.611 23.5247 251.331 22.6095 252.154C17.1705 257.068 13.3081 263.478 11.5081 270.579C11.2085 271.754 10.9684 272.943 10.7885 274.142C10.5987 275.346 10.4506 276.741 10.2797 278.031C9.59428 283.289 9.11962 288.569 8.69622 293.85C7.9252 304.4 7.76671 314.987 8.22155 325.555C8.79115 336.073 9.94933 346.583 12.4442 356.703L13.3935 360.495L14.5327 364.214C14.882 365.465 15.3377 366.679 15.7744 367.883C16.2111 369.087 16.5984 370.331 17.1319 371.485C18.9793 376.22 21.3011 380.757 24.062 385.026C29.3953 393.558 36.9728 400.314 46.168 404.048L49.6824 405.318L53.3316 406.255L54.2487 406.496C54.5562 406.568 54.8733 406.598 55.1866 406.651L57.0701 406.945L58.9687 407.245C59.601 407.356 60.2465 407.353 60.8863 407.415L64.7444 407.688L68.6556 407.671C69.3107 407.662 69.9695 407.683 70.6264 407.652L72.5953 407.508C73.9092 407.404 75.2383 407.343 76.5692 407.258H76.6736C77.0005 407.24 77.3225 407.343 77.5778 407.548C77.8332 407.753 78.0039 408.044 78.0573 408.367C78.1107 408.689 78.043 409.02 77.8672 409.296C77.6914 409.572 77.4199 409.773 77.1046 409.861C75.7851 410.218 74.4617 410.601 73.1175 410.936L71.1106 411.456C70.4385 411.619 69.7512 411.697 69.0695 411.818L64.9476 412.485C63.5559 412.594 62.1565 412.675 60.7515 412.759C60.0509 412.785 59.3465 412.878 58.6402 412.851L56.5194 412.762L54.3911 412.667C54.0379 412.645 53.6791 412.647 53.3259 412.605L52.2665 412.453C50.852 412.25 49.428 412.053 48.0135 411.795L43.8251 410.682C38.2547 408.923 33.0576 406.152 28.4954 402.508L26.8226 401.103C26.2527 400.651 25.7112 400.165 25.2012 399.647C24.1835 398.615 23.1582 397.588 22.1634 396.537L19.4369 393.181C18.9814 392.626 18.5568 392.047 18.1648 391.446L16.9572 389.656C16.5775 389.057 16.1389 388.477 15.7896 387.858L14.7358 386.004C14.0504 384.768 13.291 383.549 12.7214 382.261C12.1138 380.987 11.4834 379.722 10.8987 378.44L9.32277 374.534C7.36725 369.325 5.77491 363.988 4.55716 358.559C4.2154 357.217 3.94389 355.865 3.68947 354.511C3.43505 353.157 3.14456 351.807 2.91103 350.452C2.50282 347.732 2.01676 345.021 1.71298 342.298C0.953516 336.858 0.590873 331.399 0.262407 325.946C-0.204733 315.054 -0.0386386 304.144 0.759853 293.272C1.19275 287.851 1.6807 282.433 2.3832 277.045C2.57307 275.674 2.69268 274.39 2.92052 272.951C3.13919 271.495 3.43068 270.051 3.7939 268.624C5.97736 260 10.6679 252.215 17.2743 246.25C18.3452 245.269 19.5527 244.312 20.6482 243.472L23.8607 241.039L30.2858 236.173L55.9878 216.729C56.8329 216.152 57.8675 215.923 58.8775 216.087C59.8875 216.251 60.7955 216.797 61.4137 217.612C62.0318 218.426 62.3128 219.447 62.1984 220.462C62.0839 221.478 61.5829 222.411 60.799 223.067V223.058Z" fill="black"/>
<path d="M120.726 447.963H120.346C90.0454 447.853 62.3156 434.199 47.9808 412.331C47.4583 411.45 47.2961 410.401 47.5281 409.403C47.76 408.405 48.3682 407.534 49.2262 406.973C50.0842 406.411 51.126 406.201 52.1349 406.387C53.1438 406.573 54.0421 407.14 54.6432 407.97C67.5312 427.631 92.7168 439.907 120.374 440.015H120.728C151.414 440.015 178.669 425.498 195.553 400.145C195.829 399.679 196.197 399.275 196.634 398.956C197.071 398.637 197.569 398.41 198.096 398.29C198.624 398.169 199.171 398.157 199.704 398.255C200.236 398.352 200.743 398.557 201.194 398.856C201.645 399.155 202.03 399.544 202.325 399.996C202.621 400.449 202.821 400.958 202.914 401.49C203.007 402.023 202.99 402.569 202.864 403.095C202.738 403.621 202.507 404.116 202.184 404.55C183.789 432.153 154.121 447.963 120.726 447.963Z" fill="black"/>
<path d="M62.5701 267.677C62.9727 275.365 63.6543 282.859 65.2377 290.07C66.7077 297.175 69.2696 304.011 72.8324 310.334C73.6355 311.936 74.731 313.343 75.6651 314.849C76.1626 315.582 76.7417 316.252 77.2714 316.959L78.0821 318.011C78.3517 318.362 78.6688 318.667 78.9593 318.999L80.7364 320.958L82.6693 322.75C83.3105 323.351 83.9883 323.912 84.6989 324.43C85.3995 324.955 86.0641 325.537 86.8216 325.973L89.0317 327.382L91.348 328.584L91.9271 328.886L92.529 329.13L93.7327 329.621C94.1333 329.784 94.532 329.957 94.9384 330.109L96.1801 330.475C99.4723 331.48 102.911 332.026 106.298 331.855C113.051 331.578 119.636 328.91 124.31 323.99C124.948 323.438 125.465 322.757 126.006 322.094C126.547 321.43 127.119 320.81 127.555 320.063C127.992 319.316 128.505 318.641 128.964 317.909L130.16 315.599C130.599 314.854 130.872 314.01 131.208 313.203L131.698 311.982C131.865 311.598 132.009 311.205 132.131 310.804C132.607 309.29 132.883 307.72 132.951 306.134C133.021 304.537 132.894 302.937 132.572 301.371C132.403 300.586 132.191 299.811 131.935 299.05C131.795 298.654 131.681 298.339 131.501 297.878L130.969 296.534L126.71 285.773L118.197 264.256C117.874 263.29 117.934 262.237 118.365 261.314C118.796 260.39 119.564 259.667 120.513 259.293C121.461 258.918 122.518 258.921 123.464 259.3C124.411 259.68 125.176 260.407 125.602 261.332L134.115 282.851L138.372 293.61L138.905 294.956C139.076 295.392 139.298 295.982 139.475 296.494C139.834 297.562 140.132 298.649 140.365 299.752C140.824 301.967 141.006 304.23 140.907 306.49C140.809 308.763 140.414 311.012 139.731 313.182C139.573 313.704 139.387 314.217 139.175 314.72L138.59 316.185C138.188 317.158 137.848 318.152 137.32 319.081L135.849 321.906C135.29 322.816 134.683 323.702 134.098 324.598C133.544 325.514 132.828 326.33 132.142 327.162C131.457 327.994 130.787 328.844 129.974 329.572C129.162 330.3 128.455 331.121 127.593 331.796L125.002 333.795C124.083 334.383 123.139 334.932 122.205 335.501C121.739 335.79 121.252 336.043 120.749 336.26L119.258 336.948C115.245 338.668 110.949 339.632 106.585 339.792C102.248 339.997 97.9382 339.312 93.8637 338.07C89.8025 336.8 85.8628 335.08 82.3636 332.712C81.4427 332.185 80.632 331.514 79.7795 330.894C78.927 330.274 78.0707 329.663 77.298 328.944L74.9323 326.859L72.7526 324.595C72.3976 324.215 72.0121 323.848 71.6818 323.446L70.6964 322.226C70.0546 321.404 69.3673 320.611 68.7654 319.761C67.613 318.028 66.3902 316.329 65.4447 314.483C61.4177 307.22 59.0709 299.185 58.2906 291.16C57.4967 283.208 58.0513 275.179 59.931 267.411C60.007 267.099 60.1929 266.824 60.4548 266.638C60.7166 266.451 61.037 266.365 61.3573 266.394C61.6776 266.424 61.9766 266.568 62.1996 266.799C62.4226 267.031 62.5548 267.335 62.572 267.656L62.5701 267.677Z" fill="black"/>
<path d="M112.904 335.444C113.315 340.549 113.284 345.68 112.811 350.78C112.716 352.067 112.536 353.356 112.344 354.644C112.152 355.931 111.905 357.213 111.636 358.493C110.037 366.218 106.769 373.501 102.061 379.834C98.9831 384.005 95.1611 387.566 90.4791 389.883C90.3961 389.924 90.3004 389.931 90.2126 389.902C90.1248 389.873 90.052 389.81 90.0101 389.728C89.9861 389.679 89.9736 389.625 89.9736 389.571C89.9736 389.516 89.9861 389.462 90.0101 389.413C92.3625 384.794 95.0415 380.848 97.4319 376.779C99.7739 372.749 101.571 368.426 102.775 363.924C103.048 362.797 103.377 361.696 103.563 360.547C103.792 359.409 104.045 358.284 104.18 357.133C104.349 355.983 104.523 354.835 104.603 353.664C104.719 352.501 104.85 351.343 104.888 350.161C105.158 345.468 105.078 340.704 104.943 335.897V335.868C104.944 334.85 105.336 333.87 106.039 333.131C106.741 332.392 107.7 331.95 108.719 331.896C109.738 331.842 110.739 332.18 111.515 332.841C112.292 333.502 112.786 334.434 112.895 335.447L112.904 335.444Z" fill="black"/>
<path d="M159.253 344.584C147.694 344.584 138.776 339.745 134.747 331.273C130.984 323.36 128.573 305.398 154.683 273.987C155.007 273.555 155.416 273.193 155.884 272.924C156.352 272.655 156.871 272.483 157.407 272.42C157.944 272.357 158.488 272.403 159.006 272.556C159.524 272.71 160.006 272.966 160.421 273.311C160.837 273.656 161.178 274.082 161.424 274.562C161.67 275.043 161.816 275.568 161.852 276.107C161.889 276.645 161.815 277.185 161.636 277.694C161.457 278.203 161.176 278.671 160.81 279.068C143.8 299.528 136.923 317.312 141.94 327.86C145.617 335.594 154.562 336.684 159.551 336.629C178.149 336.464 205.072 321.064 220.242 287.643C220.439 287.14 220.737 286.682 221.118 286.298C221.498 285.913 221.952 285.61 222.454 285.407C222.955 285.203 223.493 285.104 224.034 285.115C224.575 285.126 225.108 285.246 225.6 285.469C226.093 285.693 226.535 286.014 226.9 286.413C227.265 286.812 227.544 287.281 227.721 287.792C227.898 288.302 227.97 288.844 227.931 289.383C227.892 289.922 227.743 290.447 227.495 290.927C210.883 327.522 180.666 344.398 159.624 344.587L159.253 344.584Z" fill="black"/>
<path d="M200.498 375.125C197.176 375.136 193.864 374.768 190.625 374.03C173.668 370.108 164.556 356.5 166.848 338.511C167.024 337.502 167.583 336.6 168.408 335.992C169.233 335.384 170.261 335.116 171.279 335.246C172.296 335.375 173.224 335.89 173.871 336.685C174.517 337.48 174.832 338.493 174.75 339.514C172.99 353.31 179.598 363.316 192.421 366.28C212.04 370.816 246.386 357.512 261.317 313.736C261.695 312.786 262.423 312.018 263.352 311.589C264.282 311.161 265.34 311.106 266.309 311.435C267.277 311.765 268.082 312.453 268.556 313.359C269.031 314.264 269.138 315.317 268.857 316.3C255.635 355.062 225.678 375.125 200.498 375.125Z" fill="black"/>
<path d="M210.449 409.028C201.497 409.028 195.953 405.736 192.839 402.911C184.739 395.554 183.084 382.829 188.423 368.862C188.592 368.35 188.863 367.878 189.22 367.474C189.576 367.07 190.012 366.743 190.499 366.512C190.986 366.281 191.515 366.151 192.055 366.13C192.594 366.109 193.131 366.197 193.635 366.39C194.139 366.583 194.598 366.875 194.985 367.25C195.373 367.625 195.68 368.075 195.888 368.572C196.096 369.069 196.201 369.603 196.196 370.142C196.192 370.681 196.078 371.213 195.862 371.706C191.738 382.493 192.609 391.963 198.197 397.033C205.023 403.231 218.112 402.247 234.104 394.333C255.458 383.413 263.026 367.559 261.002 357.461C259.863 351.761 255.766 348.35 249.476 347.859C248.465 347.724 247.544 347.208 246.903 346.416C246.261 345.624 245.948 344.617 246.028 343.601C246.107 342.586 246.573 341.639 247.33 340.957C248.087 340.274 249.077 339.907 250.097 339.931C259.97 340.701 266.96 346.67 268.812 355.898C271.405 368.839 262.772 388.606 237.687 401.436C226.288 407.067 217.354 409.028 210.449 409.028Z" fill="black"/>
<path d="M366.747 204.165C366.451 205.098 366.132 206.017 365.826 206.926C361.822 218.378 356.474 228.684 349.899 237.806C334.563 259.155 312.653 274.071 286.123 282.139C285.587 282.329 285.041 282.479 284.507 282.638C278.65 284.347 272.698 285.713 266.681 286.728C263.711 287.234 260.696 287.665 257.635 288.023C226.877 291.603 191.823 287.593 154.645 275.537C53.352 242.706 -1.30448 169.593 23.8488 92.2094C25.91 85.8351 28.4776 79.6352 31.527 73.6691C63.9844 10.1353 145.907 -12.9615 238.66 17.1226C309.421 40.0658 356.111 84.4732 369.238 135.542C374.904 157.569 374.325 180.84 366.747 204.165Z" fill="#CD9A40"/>
<path d="M235.608 289.846C210.166 289.846 182.528 285.189 154.466 276.09C104.269 259.817 65.1569 233.825 41.3611 200.919C17.2311 167.547 10.9826 129.902 23.2954 92.0282C25.3679 85.625 27.9474 79.3968 31.0096 73.4025C47.0627 41.9798 75.1874 19.9619 112.329 9.72653C149.615 -0.548614 193.365 1.81776 238.84 16.5678C273.714 27.8725 303.026 44.293 325.957 65.3591C348.088 85.6856 363.251 109.905 369.803 135.397C375.638 158.076 374.797 181.273 367.304 204.34C367.077 205.057 366.835 205.766 366.596 206.469L366.38 207.112C362.393 218.489 357.016 228.929 350.374 238.146C335.086 259.424 313.527 274.413 286.293 282.705C285.822 282.865 285.324 283.012 284.833 283.156L284.673 283.206C278.793 284.92 272.818 286.291 266.778 287.311C263.811 287.823 260.756 288.259 257.703 288.612C250.368 289.449 242.991 289.861 235.608 289.846ZM161.551 4.82882C103.054 4.82882 54.889 29.2245 32.0482 73.9315C29.0146 79.8718 26.4585 86.0436 24.4042 92.3885C12.213 129.894 18.4045 167.187 42.3066 200.231C65.9581 232.934 104.865 258.782 154.824 274.977C191.089 286.733 226.611 291.041 257.568 287.438C260.606 287.089 263.644 286.655 266.581 286.149C272.576 285.135 278.506 283.774 284.343 282.072L284.502 282.026C284.979 281.884 285.452 281.742 285.936 281.581C312.937 273.371 334.291 258.528 349.427 237.46C356.004 228.334 361.335 217.994 365.277 206.727L365.491 206.09C365.729 205.394 365.968 204.691 366.192 203.983C373.616 181.127 374.451 158.148 368.673 135.685C355.164 83.141 307.711 40.1291 238.479 17.6732C211.78 9.01548 185.776 4.82882 161.551 4.82882Z" fill="#390075"/>
<path opacity="0.3" d="M365.747 204.165C365.451 205.097 365.132 206.017 364.826 206.925C360.822 218.378 355.474 228.683 348.899 237.806C333.563 259.154 311.653 274.071 285.123 282.139C284.588 282.329 284.041 282.479 283.507 282.638C277.65 284.347 271.698 285.713 265.681 286.728C262.711 287.234 259.696 287.665 256.636 288.023C225.877 291.603 190.823 287.593 153.645 275.537C127.888 267.194 105.146 256.234 85.9658 243.259C94.6351 247.021 103.732 250.452 113.257 253.553C141.156 262.598 167.864 267.114 192.457 267.294C193.083 267.299 193.7 267.14 194.246 266.834C194.792 266.528 195.249 266.086 195.572 265.55C195.895 265.015 196.073 264.404 196.088 263.779C196.103 263.154 195.955 262.536 195.659 261.985C193.234 257.406 191.698 252.351 188.823 248.022C188.609 247.692 188.37 247.362 188.119 247.034C184.035 241.661 176.947 239.842 170.484 241.795C164.422 243.636 157.141 241.661 153.319 236.524C149.474 231.355 148.904 223.867 143.785 219.959C140.349 217.335 135.741 217.062 131.463 216.45C127.186 215.837 122.488 214.449 120.36 210.701C118.664 207.689 119.086 203.996 118.915 200.543C118.744 197.09 115.139 192.181 111.93 190.909C105.423 188.341 98.5862 190.829 95.4572 197.077C93.625 200.725 93.4788 204.94 92.7611 208.95C91.8972 213.823 89.7574 219.062 84.3767 220.255C81.0085 221.014 77.5168 219.777 75.0372 217.381C70.2697 212.756 69.8596 205.814 71.0671 199.623C72.0905 194.396 74.1486 189.432 75.3334 184.251C76.5181 179.071 76.7213 173.366 74.217 168.675C71.874 164.289 65.6161 161.938 60.7479 163.199C59.5389 163.502 58.2796 163.549 57.0513 163.336C55.8231 163.123 54.6533 162.654 53.6176 161.962C52.5819 161.269 51.7032 160.367 51.0385 159.313C50.3738 158.26 49.9377 157.079 49.7585 155.847C49.0864 151.154 51.0098 146.532 52.4167 142.006C53.8387 137.438 54.695 132.155 52.0863 128.145C49.3902 123.964 43.9866 122.657 39.7887 119.965C31.3929 114.589 28.2867 102.388 33.0884 93.6503C33.7586 91.7428 34.4421 89.8448 35.1465 87.9809C67.6154 24.4604 149.538 1.35222 242.289 31.4382C261.994 37.8338 279.831 45.8905 295.588 55.2858C286.095 44.7756 274.827 35.0162 261.937 26.2238C319.086 50.7636 356.679 90.5634 368.238 135.542C373.904 157.569 373.325 180.84 365.747 204.165Z" fill="#A1772C"/>
<path d="M366.747 204.165C366.451 205.098 366.132 206.017 365.827 206.926C362.367 213.209 356.941 218.424 350.423 221.446C345.815 223.57 340.685 224.685 336.51 227.582C331.776 230.864 328.442 236.318 322.959 238.068C317.305 239.875 311.345 237.159 305.759 235.159C300.173 233.159 293.348 234.478 287.912 236.852C281.633 239.59 278.743 247.124 278.903 253.952C279.062 260.78 281.561 267.323 283.08 273.98C283.734 276.834 284.209 279.725 284.502 282.638C275.714 285.192 266.724 286.993 257.63 288.023C258.245 285.748 258.915 283.503 259.588 281.263C261.76 273.958 263.932 266.506 263.765 258.889C263.598 251.272 260.317 242.518 253.719 238.69C243.479 232.736 235.539 236.337 230.874 239.655C226.209 242.973 222.832 247.766 218.668 251.686C214.504 255.605 208.896 258.809 203.289 257.662C198.202 256.618 194.449 252.243 192.015 247.664C189.581 243.085 188.056 238.03 185.189 233.701C184.973 233.371 184.733 233.043 184.483 232.713C180.399 227.339 173.311 225.521 166.85 227.476C160.786 229.315 153.504 227.339 149.682 222.203C145.838 217.034 145.268 209.546 140.149 205.638C136.713 203.014 132.106 202.741 127.829 202.128C123.551 201.516 118.852 200.128 116.726 196.379C115.03 193.368 115.452 189.676 115.281 186.222C115.11 182.767 111.502 177.86 108.295 176.587C101.787 174.02 94.9499 176.508 91.8209 182.757C89.9906 186.404 89.8425 190.619 89.1248 194.629C88.2609 199.504 86.1211 204.741 80.7404 205.934C77.3741 206.692 73.8805 205.456 71.4009 203.059C66.6334 198.435 66.2252 191.493 67.4308 185.302C68.4542 180.076 70.5142 175.11 71.6971 169.93C72.88 164.75 73.085 159.046 70.5826 154.353C68.2377 149.968 61.9817 147.616 57.1117 148.877C55.9039 149.178 54.6464 149.223 53.4203 149.009C52.1941 148.795 51.0264 148.327 49.9925 147.635C48.9586 146.943 48.0813 146.042 47.4174 144.99C46.7534 143.939 46.3174 142.76 46.1375 141.53C45.4653 136.839 47.3887 132.214 48.7956 127.688C50.2177 123.12 51.0739 117.838 48.4652 113.827C45.7691 109.646 40.3656 108.34 36.1676 105.647C27.7718 100.274 24.6656 88.0703 29.4673 79.3348C30.1375 77.4254 30.821 75.5274 31.5254 73.6653C63.9848 10.1354 145.908 -12.9614 238.661 17.1227C339.956 49.9694 391.901 126.784 366.747 204.165Z" fill="white"/>
<path d="M263.272 110.911C266.088 114.398 269.811 115.024 275.686 113.194C278.858 112.142 279.545 111.76 280.925 110.104C283.313 107.239 283.769 104.352 282.578 99.9335C282.02 97.8624 281.427 96.3932 281.151 96.4676C280.875 96.542 280.529 95.9933 280.343 95.3029C279.872 93.5539 276.634 91.6126 273.646 91.3317C271.966 91.1426 270.409 91.4137 267.765 92.2251C264.593 93.2773 263.906 93.6598 262.525 95.3153C260.15 98.2261 259.682 101.068 260.897 105.578C261.604 108.201 262.326 109.784 263.272 110.911Z" fill="#C3DDF5"/>
<path d="M290.144 130.576C291.056 131.761 292.389 131.945 294.966 131.251C298.372 130.333 298.898 129.352 297.967 125.9C297.075 122.587 296.094 122.061 292.688 122.979C289.328 123.884 288.673 124.752 289.258 127.655C289.501 128.922 289.906 130.245 290.144 130.576Z" fill="#C3DDF5"/>
<path d="M276.654 99.753C277.679 100.81 279.562 100.105 279.835 98.5504C279.967 97.5767 279.856 97.1625 279.246 96.7342C278.158 95.9909 276.387 96.5666 276.074 97.7864C275.807 98.9938 275.795 98.9477 276.654 99.753Z" fill="#F4FAFF"/>
<path d="M339.186 166.383C341.152 167.631 342.941 167.494 344.673 166.04C346.232 164.682 346.787 162.163 345.898 160.329C345.046 158.633 342.32 157.492 340.341 158.025C336.659 159.017 335.923 164.349 339.186 166.383Z" fill="#F4FAFF"/>
<path d="M336.106 135.717C337.572 137.494 339.736 138.194 342.129 137.549C344.016 137.041 344.506 136.662 345.427 135.13C347.579 131.391 345.246 127.132 340.916 126.818C339.156 126.7 338.708 126.87 337.397 127.865C336.575 128.481 335.694 129.607 335.454 130.363C334.917 132.038 335.219 134.623 336.106 135.717Z" fill="#F4FAFF"/>
<path d="M327.709 100.707C330.338 102.22 333.273 100.837 333.625 97.9284C334.206 93.6743 329.083 91.6979 326.509 95.1558C325.313 96.7617 325.898 99.6649 327.709 100.707Z" fill="#F4FAFF"/>
<path d="M352.401 209.484C357.521 207.225 358.641 198.904 354.361 194.902C352.761 193.436 351.361 193 348.281 193C344.96 193 342.72 193.951 341.16 196.011C340.04 197.438 340 197.676 340 201.519C340 205.363 340.04 205.6 341.16 207.027C342.76 209.127 344.96 210.038 348.401 209.999C349.921 209.999 351.721 209.761 352.401 209.484Z" fill="#C3DDF5"/>
<path d="M229.56 231.591C232.025 230.793 233.814 229.351 234.966 227.111C235.841 225.44 236 224.643 236 221.795C236 219.593 235.841 218.34 235.483 218.113C235.245 217.885 234.45 217.277 233.734 216.746C232.939 216.1 232.343 215.265 232.184 214.468C231.866 212.683 229.918 212 225.386 212C222.723 212 221.57 212.19 220.219 212.797C216.601 214.468 214.653 218.34 215.051 223.048C215.409 226.921 217.078 229.502 220.258 231.059C222.286 232.046 227.175 232.312 229.56 231.591Z" fill="#C3DDF5"/>
<path d="M352.472 186.778C354.378 186.152 355 184.979 355 181.85C355 179.347 354.883 178.956 353.989 178.017C353.056 177.117 352.667 177 350.139 177C347.65 177 347.222 177.117 346.328 178.017C344.422 179.894 344.616 184.901 346.6 186.191C347.728 186.935 350.917 187.248 352.472 186.778Z" fill="#C3DDF5"/>
<path d="M226.462 74.7488C228.279 74.1461 229.748 73.1817 231.139 71.6145C233.613 68.9221 234 67.797 234 63.0553C234 59.1172 233.923 58.6752 232.84 56.6258C231.565 54.2147 229.129 52.0448 226.926 51.4018C226.153 51.2009 224.027 51 222.21 51C219.543 51 218.538 51.2009 216.992 51.9644C212.894 53.9736 211.039 57.3089 211 62.6534C211 64.5421 211.193 66.7522 211.387 67.5559C212.005 69.8062 214.015 72.2574 216.412 73.6639C218.267 74.7488 218.924 74.9096 222.017 74.99C223.911 75.0301 225.921 74.9498 226.462 74.7488Z" fill="#C3DDF5"/>
<path d="M242.2 57.2C242.84 56.56 243 55.88 243 54C243 50.72 242.28 50 239.04 50C236.96 50 236.56 50.12 235.84 51.04C235.24 51.8 235 52.68 235 54C235 55.32 235.24 56.2 235.84 56.96C236.56 57.88 236.96 58 239.04 58C240.88 58 241.56 57.84 242.2 57.2Z" fill="#C3DDF5"/>
<path d="M219.413 232.388C220.22 231.492 220.183 230.335 219.376 229.588C218.018 228.356 216 229.177 216 230.969C216 232.762 218.275 233.695 219.413 232.388Z" fill="#F4FAFF"/>
<path d="M237.529 217.9C240.658 214.949 238.417 209.439 234.361 210.046C232.236 210.393 231 211.912 231 214.299C231 216.511 231.502 217.553 232.932 218.377C234.593 219.332 236.177 219.202 237.529 217.9Z" fill="#F4FAFF"/>
<path d="M281.282 204.234C283.056 203.123 284 201.322 284 199.061C284 191.782 274.109 190.709 272.259 197.759C271.844 199.406 271.882 199.674 272.712 201.399C273.92 203.889 275.581 205 278.111 205C279.357 205 280.451 204.732 281.282 204.234Z" fill="#F4FAFF"/>
<path d="M194.008 199.563C197.545 198.375 199.725 194.658 198.779 191.363C198.121 189.026 196.969 187.685 194.913 186.765C189.361 184.275 183.357 188.183 184.056 193.854C184.59 198.298 189.525 201.133 194.008 199.563Z" fill="#F4FAFF"/>
<path d="M63.9944 88.5882C65.1439 88.1418 65.4214 87.8172 65.5006 86.8027C65.5799 86.0317 65.2628 84.8549 64.8268 83.9621C63.8358 82.0955 63.7962 80.9187 64.5493 79.3767C65.3025 77.9158 67.6807 75.7651 68.9492 75.4405C71.4067 74.7912 69.2663 70.2869 65.5006 68.1768C63.598 67.1217 63.0431 67 59.8324 67C56.9784 67 55.9478 67.1623 54.6794 67.8522C51.2309 69.6782 49.4075 72.6 49.0508 76.8608C48.6544 81.852 50.5967 86.0317 54.2038 87.9389C56.2253 88.994 61.8143 89.3592 63.9944 88.5882Z" fill="#C3DDF5"/>
<path d="M73.0082 88.5313C76.545 87.2587 78.7246 83.2767 77.7787 79.7463C77.1207 77.2421 75.9692 75.8053 73.9129 74.8201C68.361 72.1517 62.3566 76.339 63.0557 82.4146C63.5904 87.1766 68.5255 90.2145 73.0082 88.5313Z" fill="#F4FAFF"/>
<g opacity="0.3">
<path opacity="0.3" d="M85.3845 193.953C86.9608 193.612 88.413 192.846 89.5824 191.737C89.4457 192.704 89.309 193.669 89.1381 194.634C88.2742 199.509 86.1344 204.746 80.7537 205.939C77.3874 206.697 73.8938 205.461 71.4142 203.064C66.6467 198.439 66.2385 191.498 67.4441 185.307C68.4675 180.081 70.5275 175.115 71.7104 169.935C72.8932 164.755 73.0983 159.051 70.5959 154.358C68.251 149.972 61.995 147.621 57.1249 148.882C55.916 149.185 54.6569 149.232 53.4289 149.018C52.2009 148.805 51.0314 148.337 49.9959 147.644C48.9603 146.951 48.0819 146.049 47.4173 144.996C46.7527 143.943 46.3167 142.763 46.1375 141.531C45.4653 136.84 47.3887 132.215 48.7956 127.689C50.2177 123.121 51.0739 117.839 48.4652 113.828C45.7691 109.647 40.3656 108.341 36.1676 105.648C27.7718 100.275 24.6656 88.0711 29.4673 79.3356C30.1375 77.4262 30.821 75.5282 31.5254 73.6662C31.7761 73.1656 32.0381 72.665 32.3115 72.1777C30.5362 80.1301 33.8703 89.2202 40.7984 93.6609C44.9964 96.3534 50.3999 97.6618 53.096 101.843C55.701 105.853 54.8485 111.134 53.4264 115.703C52.0157 120.224 50.0923 124.849 50.7683 129.545C50.9465 130.778 51.3818 131.959 52.046 133.013C52.7103 134.067 53.5886 134.97 54.6243 135.663C55.66 136.357 56.8299 136.825 58.0583 137.039C59.2868 137.252 60.5464 137.206 61.7558 136.902C66.6239 135.641 72.8819 137.994 75.2248 142.38C77.7291 147.071 77.5127 152.763 76.3412 157.955C75.1697 163.147 73.0983 168.094 72.0749 173.319C70.8674 179.512 71.2775 186.454 76.045 191.079C78.5247 193.475 82.022 194.702 85.3845 193.953Z" fill="#3D7DB8"/>
</g>
<g opacity="0.3">
<path opacity="0.3" d="M268.408 246.908C268.568 254.519 266.396 261.973 264.231 269.283C263.969 270.134 263.071 271.327 262.014 272.622C263.117 268.101 263.89 263.534 263.789 258.898C263.641 251.275 260.341 242.526 253.743 238.698C243.504 232.744 235.564 236.345 230.899 239.663C226.234 242.981 222.856 247.775 218.692 251.694C214.529 255.613 208.92 258.818 203.313 257.671C198.227 256.626 194.473 252.252 192.039 247.672C189.605 243.093 188.08 238.038 185.213 233.709C184.997 233.379 184.758 233.051 184.507 232.721C180.423 227.348 173.335 225.529 166.874 227.484C160.81 229.324 153.529 227.348 149.707 222.211C145.862 217.042 145.292 209.554 140.174 205.647C136.737 203.022 132.131 202.749 127.853 202.137C123.576 201.524 118.876 200.136 116.75 196.388C115.054 193.377 115.476 189.685 115.305 186.23C115.134 182.775 111.527 177.868 108.32 176.596C103.176 174.575 97.8412 175.699 94.2812 179.334C94.7009 176.38 95.1451 173.426 96.4761 170.779C99.6051 164.531 106.442 162.041 112.949 164.61C116.158 165.883 119.752 170.79 119.934 174.245C120.116 177.699 119.683 181.391 121.379 184.402C123.507 188.151 128.204 189.537 132.482 190.149C136.76 190.762 141.368 191.037 144.804 193.661C149.931 197.569 150.5 205.057 154.337 210.226C158.159 215.36 165.441 217.338 171.503 215.497C177.959 213.544 185.054 215.36 189.138 220.736C189.388 221.064 189.628 221.394 189.842 221.724C192.709 226.053 194.245 231.108 196.677 235.687C199.11 240.266 202.865 244.639 207.95 245.685C213.558 246.823 219.178 243.639 223.329 239.709C227.479 235.778 230.861 230.986 235.537 227.678C240.213 224.369 248.142 220.759 258.38 226.711C264.962 230.537 268.26 239.293 268.408 246.908Z" fill="#3D7DB8"/>
</g>
<g opacity="0.3">
<path opacity="0.3" d="M368.615 197.906C368.045 199.992 367.432 202.078 366.748 204.163C366.452 205.096 366.133 206.016 365.827 206.924C362.368 213.208 356.942 218.422 350.424 221.445C345.816 223.569 340.685 224.683 336.51 227.581C331.777 230.863 328.443 236.316 322.96 238.066C317.305 239.873 311.346 237.158 305.76 235.158C300.174 233.157 293.348 234.477 287.912 236.851C286.253 237.58 284.771 238.658 283.566 240.01C283.946 233.753 286.855 227.342 292.543 224.865C297.97 222.49 304.795 221.16 310.391 223.172C315.986 225.184 321.938 227.886 327.592 226.081C333.076 224.331 336.41 218.876 341.141 215.593C345.318 212.696 350.445 211.583 355.054 209.459C360.525 206.884 365.206 202.895 368.615 197.906Z" fill="#3D7DB8"/>
</g>
<g opacity="0.55">
<path opacity="0.55" d="M372.895 170.842C370.165 109.764 320.528 54.4897 238.66 27.9381C145.908 -2.14595 63.9845 20.9509 31.5271 84.4846C30.8227 86.3485 30.1391 88.2446 29.4689 90.154C28.8135 91.36 28.2981 92.6368 27.9329 93.9596C26.6361 89.0865 27.0348 83.7679 29.4689 79.3385C30.1391 77.4291 30.8227 75.5311 31.5271 73.6691C63.9845 10.1353 145.908 -12.9615 238.66 17.1226C325.338 45.2308 375.882 105.537 372.895 170.842Z" fill="#3380C8"/>
</g>
<path d="M235.35 293.314C209.758 293.314 182.144 288.638 153.419 279.324C102.535 262.828 62.8268 236.397 38.6057 202.91C13.8169 168.626 7.40518 129.924 20.0673 90.981C32.6136 52.3909 61.4978 23.4786 101.4 9.57809C141.414 -4.36038 189.305 -3.06343 239.895 13.3419C342.736 46.6873 396.456 125.661 370.534 205.392C357.866 244.352 330.189 271.868 290.494 284.961C273.596 290.534 255.075 293.314 235.35 293.314ZM160.771 8.1048C140.421 8.1048 121.231 11.0912 104.022 17.0887C65.9824 30.3389 39.5702 56.7425 27.641 93.4384C15.7972 129.869 21.8197 166.111 45.0611 198.249C68.3025 230.387 106.606 255.789 155.88 271.76C205.121 287.728 250.812 289.679 287.999 277.411C325.186 265.143 351.109 239.389 362.962 202.934C387.435 127.658 335.811 52.8061 237.438 20.9056C211.161 12.3863 185.134 8.1048 160.771 8.1048Z" fill="black"/>
<path d="M305.125 138.001C306.422 137.935 307.711 138.253 308.829 138.915C309.977 139.612 310.967 140.541 311.736 141.641C313.324 143.9 314.142 146.61 314.067 149.37C314.031 152.095 313.374 154.704 312.647 157.121C311.92 159.539 311.109 161.827 310.617 164.021C309.592 168.42 309.6 172.952 311.297 176.43C312.856 179.727 316.657 182.228 319.693 181.826C322.731 181.625 325.645 178.358 326.602 174.581C327.109 172.685 327.193 170.514 327.048 168.299C326.904 166.084 326.479 163.758 326.01 161.384C325.087 156.643 323.874 151.448 324.595 146.12C324.935 143.465 325.888 140.926 327.379 138.702C328.116 137.62 329.006 136.651 330.021 135.824C331.021 135.028 332.163 134.429 333.386 134.059C331.297 135.448 329.89 137.455 329.044 139.603C328.219 141.739 327.845 144.022 327.944 146.31C328.117 150.883 329.74 155.312 331.214 160.074C331.949 162.461 332.644 164.964 333.023 167.618C333.476 170.405 333.435 173.249 332.904 176.022C332.285 178.997 330.912 181.763 328.916 184.056C327.848 185.259 326.586 186.276 325.182 187.063C323.706 187.879 322.082 188.395 320.405 188.58C316.987 188.919 313.725 187.822 311.185 186.071C308.629 184.32 306.623 181.881 305.398 179.037C304.291 176.34 303.79 173.433 303.93 170.521C304.049 167.793 304.569 165.098 305.476 162.521C307.23 157.457 309.922 153.448 310.743 149.04C311.177 146.86 310.954 144.601 310.101 142.548C309.67 141.487 309.029 140.525 308.215 139.719C307.363 138.873 306.293 138.279 305.125 138.001Z" fill="black"/>
<g opacity="0.3">
<path opacity="0.3" d="M329.91 174.581C329.841 174.961 329.762 175.319 329.661 175.694C328.522 180.055 325.418 184.079 321.049 185.044C315.837 186.203 310.416 182.5 308.284 177.613C307.99 176.932 307.747 176.229 307.555 175.512C306.452 171.456 306.919 167.025 308.159 162.924C308.193 163.026 308.239 163.14 308.284 163.242C310.411 168.138 315.837 171.832 321.049 170.683C324.871 169.843 327.738 166.65 329.148 162.935C330.035 166.786 330.605 170.728 329.91 174.581Z" fill="#3D7DB8"/>
</g>
<path d="M80.4326 69.6116C85.1356 70.0079 87.9892 75.3759 87.769 80.084C87.5488 84.7921 85.2495 89.1077 83.7553 93.5807C82.0768 98.6415 81.4769 104.328 83.5939 109.22C85.7109 114.112 91.1391 117.808 96.3528 116.657C101.09 115.612 104.356 110.968 105.216 106.194C106.076 101.419 104.999 96.5424 103.797 91.8495C102.596 87.1566 101.257 82.3859 101.589 77.5527C101.922 72.7194 104.299 67.7079 108.692 65.6582" fill="white"/>
<g opacity="0.3">
<path opacity="0.3" d="M105.214 106.195C104.36 110.956 101.085 115.615 96.3512 116.66C91.1413 117.798 85.7187 114.115 83.5979 109.218C81.6651 104.764 81.9822 99.6516 83.3359 94.9473C83.4157 95.1634 83.5068 95.3796 83.5979 95.5957C85.7149 100.48 91.1413 104.185 96.3512 103.027C100.264 102.162 103.186 98.823 104.553 94.9928C105.385 98.6978 105.884 102.481 105.214 106.195Z" fill="black"/>
</g>
<path d="M80.4335 69.6115C81.7312 69.5452 83.0196 69.8625 84.1377 70.5235C85.284 71.2201 86.2736 72.1459 87.0446 73.2426C88.6314 75.5004 89.4488 78.208 89.3761 80.9655C89.3382 83.6903 88.6831 86.2993 87.9559 88.715C87.2288 91.1307 86.4161 93.4231 85.9263 95.615C84.901 100.016 84.9067 104.546 86.606 108.025C88.1648 111.323 91.9659 113.822 95.0018 113.422C98.0397 113.219 100.954 109.952 101.911 106.175C102.418 104.278 102.502 102.109 102.355 99.8946C102.209 97.6799 101.786 95.3534 101.319 92.9775C100.396 88.2372 99.1827 83.0418 99.9041 77.7137C100.284 75.0477 101.188 72.4727 102.688 70.2979C103.424 69.2146 104.314 68.2443 105.33 67.4176C106.329 66.6221 107.47 66.0231 108.693 65.6523C106.604 67.0441 105.199 69.0483 104.351 71.1966C103.527 73.333 103.153 75.616 103.251 77.9033C103.426 82.4767 105.049 86.908 106.523 91.6673C107.256 94.0621 107.953 96.5612 108.338 99.2272C108.79 102.014 108.75 104.858 108.218 107.631C107.601 110.605 106.23 113.371 104.237 115.665C103.169 116.87 101.907 117.887 100.502 118.674C99.026 119.49 97.4023 120.006 95.7252 120.191C92.3076 120.53 89.0439 119.432 86.5054 117.684C83.9491 115.932 81.9425 113.492 80.7183 110.648C79.6113 107.95 79.1103 105.044 79.2506 102.132C79.3695 99.4043 79.8896 96.7088 80.7942 94.1323C82.5505 89.0677 85.2409 85.0612 86.063 80.6527C86.4977 78.4727 86.2737 76.2128 85.4193 74.1603C84.9913 73.0984 84.3496 72.1356 83.534 71.3313C82.6792 70.4833 81.6061 69.8881 80.4335 69.6115Z" fill="black"/>
<path d="M260.839 276.98C250.828 303.297 250.22 321.968 271.954 322.476C284.451 319.181 289.121 294.855 283.086 273.982" fill="white"/>
<g opacity="0.3">
<path opacity="0.3" d="M285.702 293.444C285.531 307.78 280.628 320.179 271.959 322.472C253.415 322.039 251.129 308.395 257.078 288.057C257.135 298.59 262.221 305.042 274.872 305.338C279.717 304.066 283.393 299.623 285.702 293.444Z" fill="black"/>
</g>
<g opacity="0.55">
<path opacity="0.55" d="M133.583 102.525C119.723 149.807 269.979 193.707 283.829 146.425L280.319 157.836C266.459 205.118 116.222 161.218 130.073 113.936" fill="#3380C8"/>
</g>
<path d="M276.107 156.432C271.902 157.32 266.472 157.82 266.105 147.532C266.039 145.674 264.659 143.389 261.949 142.547C260.153 141.99 258.201 142.357 256.587 143.33C249.473 147.583 239.086 152.03 240.449 126.957C240.449 126.957 236.824 157.25 230.91 166.734C230.92 166.732 262.076 169.023 276.107 156.432Z" fill="#CD9A40"/>
<path d="M240.252 132.146C240.138 133.613 239.979 135.135 239.775 136.714C238.729 144.723 236.441 154.05 231.958 164.242C204.735 164.527 179.745 155.687 156.168 140.92C163.176 130.011 168.251 118.877 170.993 107.301C171.651 104.552 172.164 101.791 172.551 98.9962C174.213 73.8421 206.078 57.1504 228.455 88.7931C237.35 101.38 241.471 116.803 240.252 132.146Z" fill="#6CBFF6"/>
<g opacity="0.55">
<path opacity="0.55" d="M240.252 132.145C239.696 139.235 238.182 147.586 234.905 156.822C236.12 151.916 236.934 146.919 237.341 141.882C238.547 126.523 234.44 111.115 225.543 98.5384C206.828 72.1006 181.494 79.4064 172.723 97.2111C175.736 73.079 206.612 57.9232 228.456 88.8036C237.351 101.379 241.471 116.802 240.252 132.145Z" fill="#478FE4"/>
</g>
<path d="M170.095 110.772C164.05 100.095 155.517 103.549 151.298 110.772C146.318 118.487 140.212 118.546 133.58 115.04C133.58 115.04 144.378 136.5 156.82 139.879C156.829 139.885 166.658 123.722 170.095 110.772Z" fill="#CD9A40"/>
<path d="M241.754 170.721C206.604 170.721 160.852 154.666 140.075 132.948C130.284 122.709 126.716 111.806 129.764 101.408C129.888 100.881 130.118 100.385 130.44 99.9501C130.762 99.5151 131.169 99.1502 131.637 98.8777C132.106 98.6052 132.624 98.4309 133.162 98.3653C133.7 98.2997 134.245 98.3443 134.765 98.4962C135.285 98.6482 135.769 98.9044 136.186 99.2492C136.604 99.594 136.947 100.02 137.194 100.502C137.441 100.983 137.587 101.51 137.624 102.05C137.66 102.59 137.586 103.131 137.406 103.642C135.173 111.264 138.01 119.275 145.834 127.455C165.031 147.52 208.922 162.771 241.807 162.772C248.437 162.772 254.615 162.152 260.059 160.829C271.071 158.15 277.777 152.928 280.008 145.307C280.353 144.354 281.049 143.568 281.953 143.11C282.858 142.651 283.904 142.555 284.878 142.839C285.852 143.124 286.68 143.769 287.194 144.643C287.709 145.516 287.87 146.553 287.646 147.541C284.608 157.937 275.711 165.203 261.938 168.556C255.884 170.029 249.043 170.721 241.754 170.721Z" fill="black"/>
<path d="M269.609 326.161C265.041 326.161 260.345 323.98 257.089 320.072C253.7 316.009 251.885 310.324 251.839 303.635C251.781 295.523 254.084 287.802 256.309 280.335C258.291 273.684 260.522 266.196 260.376 258.96C260.25 252.68 257.619 244.889 252.022 241.637C245.35 237.759 239.084 238.021 232.868 242.435C230.248 244.295 228.021 246.747 225.653 249.341C224.191 250.951 222.678 252.614 221.03 254.172C215.078 259.796 208.537 262.223 202.604 260.998C195.768 259.59 191.438 253.837 189.011 249.259C187.978 247.312 187.112 245.312 186.271 243.381C185.056 240.581 183.909 237.934 182.353 235.592C182.174 235.323 181.973 235.052 181.783 234.782C178.677 230.704 173.214 229.121 167.856 230.744C160.144 233.087 151.545 230.41 146.954 224.236C145.111 221.76 143.987 218.997 142.9 216.324C141.594 213.113 140.36 210.082 138.095 208.36C135.83 206.638 132.559 206.204 129.093 205.749C128.513 205.673 127.933 205.595 127.362 205.514C120.498 204.533 116.054 202.101 113.771 198.06C112.013 194.95 111.971 191.56 111.935 188.568C111.935 187.842 111.918 187.116 111.882 186.403C111.776 184.288 109.065 180.568 107.048 179.766C102.184 177.842 97.1753 179.7 94.8969 184.287C93.7786 186.522 93.397 189.216 92.9982 192.07C92.8483 193.128 92.6983 194.184 92.5141 195.229C90.7389 205.216 85.5479 208.377 81.5019 209.27C77.135 210.235 72.4738 208.828 69.0525 205.51C64.1596 200.77 62.4072 193.356 64.1065 184.653C64.6951 181.651 65.5912 178.774 66.4608 175.981C67.188 173.645 67.8772 171.431 68.3879 169.184C69.6278 163.723 69.36 159.278 67.5943 155.972C66.0564 153.093 61.4749 151.288 57.9833 152.179C56.3095 152.602 54.5653 152.67 52.8638 152.376C51.1624 152.083 49.5416 151.436 48.1066 150.477C46.6717 149.518 45.4545 148.269 44.5341 146.81C43.6136 145.351 43.0105 143.715 42.7637 142.008C42.0878 137.253 43.5764 132.717 44.8921 128.718C45.1143 128.036 45.3383 127.357 45.551 126.678C47.1249 121.64 47.1458 118.043 45.6155 115.681C44.2864 113.633 41.6967 112.361 38.9474 111.012C37.3657 110.273 35.8278 109.444 34.3413 108.528C24.3981 102.157 20.8039 88.0388 26.4904 77.6992C26.9576 76.9697 27.6849 76.4448 28.5251 76.2308C29.3654 76.0169 30.2556 76.1299 31.0155 76.5469C31.7754 76.964 32.3482 77.6539 32.6177 78.4769C32.8873 79.3 32.8336 80.1946 32.4673 80.9795C28.5125 88.1677 31.1079 98.3595 38.019 102.785C39.2882 103.558 40.5997 104.26 41.9473 104.888C45.2491 106.507 48.9894 108.341 51.3418 111.974C54.0398 116.145 54.2734 121.617 52.0576 128.705C51.8374 129.414 51.6038 130.125 51.3684 130.84C50.1818 134.452 49.0616 137.865 49.5134 141.047C49.6242 141.807 49.8942 142.535 50.3057 143.184C50.7173 143.833 51.2612 144.388 51.9019 144.813C52.534 145.242 53.2505 145.532 54.0035 145.662C54.7565 145.793 55.5288 145.762 56.2688 145.571C62.8097 143.889 70.5866 147.109 73.6035 152.75C76.1648 157.543 76.6414 163.575 75.0313 170.682C74.4617 173.196 73.7023 175.636 72.9656 177.995C72.1131 180.729 71.31 183.304 70.7935 185.959C69.9106 190.464 69.7151 196.666 73.7953 200.622C75.5648 202.34 77.8926 203.087 80.0134 202.615C81.1051 202.374 84.4258 201.64 85.7758 194.04C85.9467 193.075 86.0834 192.099 86.222 191.12C86.6852 187.851 87.1618 184.472 88.7775 181.241C92.6584 173.486 101.398 170.202 109.56 173.431C114.016 175.195 118.457 181.33 118.696 186.058C118.736 186.858 118.746 187.669 118.755 188.483C118.786 190.866 118.812 193.117 119.705 194.706C120.876 196.776 123.692 198.104 128.317 198.764C128.866 198.843 129.418 198.915 129.974 198.987C133.979 199.514 138.518 200.11 142.228 202.941C145.974 205.798 147.695 210.028 149.215 213.762C150.184 216.145 151.099 218.394 152.424 220.177C155.272 224.018 160.93 225.721 165.863 224.227C173.976 221.762 182.353 224.287 187.204 230.656C187.5 231.036 187.773 231.438 188.037 231.828C189.936 234.673 191.252 237.725 192.531 240.674C193.355 242.57 194.132 244.366 195.041 246.08C196.465 248.766 199.52 253.412 203.978 254.33C209.127 255.388 214.335 251.106 216.335 249.223C217.795 247.845 219.154 246.349 220.593 244.764C223.092 242.014 225.676 239.172 228.9 236.883C237.29 230.926 246.468 230.533 255.443 235.746C263.867 240.642 267.025 251.237 267.188 258.824C267.353 267.123 264.963 275.151 262.852 282.233C260.763 289.268 258.601 296.494 258.65 303.587C258.676 307.139 259.331 312.12 262.322 315.711C264.851 318.745 269.049 320.108 272.087 318.88C275.028 317.689 277.241 314.363 278.857 308.713C282.01 297.645 282.317 285.962 279.751 274.743C279.32 272.864 278.791 270.93 278.278 269.055C276.964 264.25 275.605 259.281 275.487 254.026C275.328 246.961 278.126 237.405 286.539 233.724C293.8 230.548 301.225 229.902 306.91 231.946C307.555 232.179 308.205 232.42 308.86 232.663C313.574 234.413 318.03 236.062 321.913 234.822C324.552 233.98 326.785 231.788 329.149 229.487C330.81 227.862 332.528 226.182 334.554 224.775C337.577 222.678 340.89 221.462 344.095 220.287C345.813 219.655 347.436 219.06 348.98 218.347C357.6 214.365 364.091 206.102 365.922 196.792C365.986 196.332 366.143 195.89 366.384 195.493C366.625 195.096 366.945 194.752 367.323 194.483C367.702 194.214 368.131 194.024 368.586 193.926C369.04 193.828 369.509 193.824 369.966 193.913C370.422 194.003 370.855 194.184 371.238 194.447C371.622 194.709 371.947 195.047 372.196 195.439C372.444 195.832 372.61 196.27 372.682 196.729C372.755 197.187 372.733 197.656 372.618 198.106C370.376 209.52 362.417 219.646 351.849 224.532C350.051 225.362 348.221 226.036 346.449 226.686C343.52 227.759 340.753 228.772 338.45 230.372C336.893 231.453 335.452 232.864 333.924 234.354C331.097 237.12 328.171 239.98 323.992 241.315C317.861 243.271 311.816 241.028 306.483 239.051C305.85 238.816 305.222 238.582 304.597 238.359C300.597 236.919 294.87 237.521 289.277 239.967C284.297 242.145 282.189 248.52 282.311 253.871C282.411 258.289 283.602 262.644 284.865 267.258C285.394 269.195 285.941 271.2 286.404 273.215C289.225 285.551 288.887 298.398 285.421 310.569C283.192 318.37 279.668 323.15 274.65 325.183C273.048 325.829 271.337 326.161 269.609 326.161Z" fill="black"/>
<path d="M231.955 168.216C231.294 168.214 230.643 168.048 230.062 167.733C229.481 167.418 228.988 166.963 228.627 166.411C228.265 165.858 228.047 165.224 227.992 164.566C227.937 163.908 228.047 163.246 228.311 162.641C232.794 152.438 235.479 142.072 236.286 131.831C237.425 117.288 233.495 102.82 225.201 91.0945C216.391 78.6407 205.167 73.2329 194.392 76.2648C184.581 79.0237 177.234 88.4835 176.522 99.2687C176.522 99.3635 176.506 99.4583 176.493 99.5513C174.465 114.222 168.912 128.46 159.515 143.073C158.92 143.904 158.028 144.475 157.024 144.667C156.019 144.86 154.979 144.66 154.118 144.108C153.258 143.556 152.642 142.695 152.399 141.703C152.156 140.71 152.305 139.663 152.813 138.777C161.543 125.198 166.702 112.062 168.585 98.5994C169.586 84.3537 179.072 72.3133 192.233 68.612C206.443 64.615 220.832 71.1339 231.706 86.5078C241.07 99.7466 245.517 116.067 244.226 132.457C243.347 143.587 240.445 154.82 235.604 165.84C235.292 166.547 234.781 167.148 234.133 167.57C233.485 167.992 232.728 168.216 231.955 168.216Z" fill="black"/>
<path d="M141.26 120.664C138.57 120.664 135.496 119.906 131.995 118.053C131.573 117.859 131.196 117.581 130.885 117.236C130.575 116.892 130.338 116.487 130.189 116.048C130.04 115.609 129.983 115.144 130.02 114.681C130.057 114.219 130.188 113.769 130.405 113.359C130.622 112.949 130.92 112.588 131.282 112.297C131.644 112.006 132.061 111.791 132.508 111.667C132.955 111.542 133.423 111.51 133.884 111.572C134.344 111.634 134.786 111.789 135.185 112.028C141.2 115.207 144.91 114.356 148.399 108.994C151.496 103.73 156.184 100.598 160.983 100.598H161.056C164.352 100.62 169.112 102.115 173.07 109.102C173.465 109.885 173.543 110.79 173.288 111.628C173.033 112.467 172.464 113.176 171.7 113.607C170.936 114.039 170.035 114.16 169.183 113.946C168.332 113.732 167.596 113.199 167.128 112.458C165.831 110.167 163.71 107.433 161.012 107.414H160.985C158.707 107.414 156.049 109.405 154.255 112.498L154.175 112.627C151.549 116.679 147.408 120.664 141.26 120.664Z" fill="black"/>
<path d="M272.751 160.278C270.868 160.278 268.753 159.867 266.888 158.412C264.251 156.355 262.88 152.834 262.694 147.652C262.683 147.308 262.333 146.233 260.936 145.801C260.176 145.562 259.227 145.725 258.34 146.252C255.414 148.002 248.56 152.104 243.022 148.767C238.275 145.911 236.377 138.92 237.051 126.771C237.054 126.309 237.15 125.852 237.336 125.428C237.521 125.004 237.79 124.622 238.127 124.305C238.465 123.989 238.863 123.744 239.298 123.585C239.733 123.427 240.196 123.358 240.658 123.384C241.121 123.41 241.573 123.529 241.988 123.735C242.403 123.94 242.771 124.228 243.071 124.58C243.371 124.933 243.597 125.342 243.733 125.784C243.87 126.226 243.916 126.691 243.867 127.151C243.17 139.881 245.743 142.454 246.548 142.938C247.888 143.749 250.677 142.898 254.834 140.414C257.38 138.897 260.34 138.488 262.964 139.301C267.315 140.651 269.419 144.457 269.516 147.42C269.662 151.506 270.666 152.729 271.092 153.052C271.946 153.719 273.75 153.454 275.402 153.105C275.85 152.985 276.318 152.957 276.778 153.024C277.237 153.09 277.678 153.25 278.074 153.492C278.469 153.734 278.812 154.055 279.079 154.433C279.347 154.812 279.534 155.241 279.631 155.695C279.727 156.149 279.729 156.617 279.638 157.072C279.547 157.526 279.364 157.957 279.1 158.339C278.837 158.721 278.498 159.045 278.105 159.291C277.712 159.538 277.273 159.702 276.814 159.774C275.482 160.086 274.12 160.255 272.751 160.278Z" fill="black"/>
<path d="M244.776 53.3979C250.252 52.9315 254.304 57.541 254.754 61.7277C255.204 65.9143 253.489 70.118 254.091 74.2933C254.693 78.4686 259.166 82.9416 264.574 82.1301C268.751 81.5024 271.162 78.023 271.582 74.7958C272.001 71.5686 271.046 68.3091 271.392 65.0762C271.737 61.8433 273.968 58.326 278.096 57.5372" fill="white"/>
<g opacity="0.3">
<path opacity="0.3" d="M271.584 74.7928C271.162 78.0162 268.751 81.4956 264.576 82.1327C259.172 82.9386 254.689 78.4618 254.088 74.2922C253.708 71.611 254.277 68.9185 254.621 66.226C256.066 69.7377 259.991 72.8625 264.576 72.1685C268.215 71.6224 270.515 68.9072 271.322 66.0781C271.231 68.9754 271.96 71.8955 271.584 74.7928Z" fill="black"/>
</g>
<path d="M244.776 53.3969C246.343 52.8959 248.025 52.8734 249.605 53.3324C251.264 53.7609 252.77 54.7336 254.044 55.9642C255.358 57.2658 256.32 58.8783 256.842 60.6515C257.351 62.5381 257.38 64.2352 257.342 65.8962C257.304 67.5572 257.14 69.0513 257.082 70.4279C257.055 71.1162 257.061 71.7742 257.097 72.381C257.114 72.9386 257.193 73.4926 257.334 74.0325C257.761 75.739 259.379 77.5953 261.131 78.3329C261.971 78.731 262.902 78.8979 263.827 78.8164C264.733 78.781 265.609 78.4875 266.353 77.9708C267.155 77.4163 267.802 76.6672 268.234 75.794C268.466 75.3412 268.641 74.8617 268.756 74.3662C268.892 73.7588 268.977 73.141 269.009 72.5194C269.1 71.1921 269.054 69.6752 269.127 68.0369C269.16 67.1912 269.245 66.3483 269.383 65.5132C269.527 64.6191 269.782 63.7465 270.142 62.9155C270.883 61.2772 272.001 59.8323 273.448 58.8843C274.151 58.4151 274.918 58.051 275.726 57.8035C276.503 57.5962 277.306 57.506 278.109 57.5361C276.763 58.1295 275.599 59.0691 274.735 60.259C273.982 61.3398 273.502 62.5871 273.338 63.8939C273.256 64.514 273.248 65.1414 273.313 65.7635C273.37 66.4195 273.461 67.0907 273.588 67.7866C273.833 69.1803 274.181 70.6763 274.348 72.3753C274.442 73.2695 274.465 74.1699 274.416 75.0678C274.339 76.078 274.13 77.0738 273.793 78.0295C273.119 79.9971 271.913 81.7405 270.309 83.0676C268.652 84.4296 266.633 85.2802 264.5 85.5155C262.389 85.748 260.255 85.4135 258.318 84.5465C254.566 82.7604 251.79 79.5256 250.993 75.2555C250.843 74.3057 250.791 73.3431 250.839 72.3829C250.872 71.5162 250.964 70.6527 251.114 69.7984C251.372 68.1583 251.75 66.6926 252.025 65.3103C252.153 64.6239 252.282 63.9621 252.361 63.3137C252.431 62.7088 252.463 62.1002 252.456 61.4915C252.378 60.2719 252.025 59.0858 251.424 58.0215C250.781 56.8477 249.89 55.8274 248.813 55.0313C247.614 54.1783 246.231 53.6184 244.776 53.3969Z" fill="black"/>
<path d="M160.784 49.5565L160.789 49.5565C161.897 49.5525 162.977 49.2091 163.884 48.5724C164.791 47.9356 165.481 47.0361 165.86 45.9948C166.239 44.9535 166.289 43.821 166.004 42.7502C165.718 41.6794 165.111 40.7222 164.264 40.0077L164.264 40.0077L164.258 40.0023L149.524 27.6774L149.483 27.6428L149.44 27.6104C148.33 26.78 146.945 26.4061 145.569 26.5651C144.192 26.7242 142.929 27.4041 142.038 28.4659C141.148 29.5278 140.699 30.8907 140.784 32.2741C140.869 33.6574 141.481 34.955 142.495 35.9L142.534 35.9367L142.576 35.9712L157.307 48.2947C157.308 48.2949 157.308 48.2951 157.308 48.2953C158.282 49.1116 159.513 49.5581 160.784 49.5565Z" fill="#FF395D" stroke="black" stroke-width="4"/>
<path d="M292.263 111.875L292.281 111.875L292.299 111.875C292.546 111.875 292.794 111.858 293.039 111.825L293.039 111.825L293.045 111.824L312.076 109.204L312.124 109.197L312.171 109.188C313.538 108.932 314.755 108.16 315.568 107.032C316.382 105.904 316.73 104.505 316.539 103.127C316.349 101.749 315.634 100.498 314.545 99.632C313.456 98.7665 312.076 98.353 310.691 98.4765L310.643 98.4808L310.596 98.4873L291.562 101.108L291.547 101.11L291.532 101.112C290.191 101.317 288.975 102.018 288.125 103.077C287.276 104.136 286.855 105.475 286.947 106.83C287.039 108.184 287.637 109.454 288.622 110.388C289.607 111.322 290.906 111.853 292.263 111.875Z" fill="#FF395D" stroke="black" stroke-width="4"/>
<path d="M204.499 219.644H204.506C205.25 219.644 205.987 219.491 206.67 219.194C207.353 218.896 207.967 218.462 208.475 217.916L208.475 217.915L221.546 203.848L221.58 203.811L221.613 203.772C222.505 202.707 222.954 201.341 222.867 199.955L220.871 200.081L222.867 199.955C222.779 198.569 222.162 197.27 221.143 196.326C220.125 195.383 218.782 194.866 217.394 194.883C216.006 194.9 214.677 195.449 213.681 196.417L213.645 196.452L213.61 196.489L200.54 210.557L200.54 210.557L200.536 210.562C199.823 211.334 199.35 212.296 199.176 213.332C199.001 214.369 199.132 215.433 199.553 216.396C199.973 217.359 200.665 218.179 201.543 218.755C202.421 219.332 203.448 219.641 204.499 219.644Z" fill="#FF395D" stroke="black" stroke-width="4"/>
<path d="M290.721 207.742C291.693 208.553 292.919 208.997 294.184 208.996L294.185 208.998C295.294 208.995 296.376 208.652 297.284 208.014L296.135 206.377L297.284 208.014C298.193 207.376 298.883 206.475 299.262 205.432C299.641 204.389 299.69 203.255 299.402 202.183C299.114 201.111 298.504 200.154 297.654 199.44L297.649 199.436L287.104 190.65C286.576 190.167 285.957 189.792 285.284 189.549C284.589 189.298 283.85 189.192 283.113 189.237C282.376 189.281 281.656 189.476 280.997 189.809C280.338 190.142 279.753 190.607 279.28 191.174L280.816 192.455L279.28 191.174C278.807 191.741 278.455 192.399 278.246 193.108L280.164 193.674L278.246 193.108C278.037 193.816 277.975 194.56 278.064 195.293C278.153 196.026 278.392 196.733 278.765 197.371C279.126 197.989 279.607 198.529 280.178 198.96L290.72 207.741C290.72 207.741 290.72 207.741 290.721 207.742Z" fill="#FF395D" stroke="black" stroke-width="4"/>
<path d="M126.597 82.5293L126.604 82.5293C127.626 82.5291 128.628 82.2395 129.492 81.6937C129.492 81.6936 129.492 81.6934 129.492 81.6933C129.493 81.6932 129.493 81.693 129.493 81.6929L141.105 74.368C141.726 74.0127 142.271 73.5378 142.707 72.9706C143.156 72.3874 143.481 71.7189 143.663 71.0057C143.844 70.2925 143.879 69.5498 143.763 68.823C143.648 68.0961 143.385 67.4005 142.992 66.7786C142.599 66.1567 142.082 65.6216 141.475 65.2059C140.868 64.7901 140.183 64.5024 139.461 64.3601C138.739 64.2179 137.996 64.224 137.276 64.3782C136.576 64.5282 135.913 64.8152 135.326 65.2225L123.712 72.5462L123.712 72.5462L123.706 72.5506C122.718 73.1788 121.961 74.1098 121.547 75.2046L123.418 75.9114L121.547 75.2046C121.134 76.2995 121.086 77.4988 121.412 78.6228C121.738 79.7468 122.42 80.7347 123.355 81.4387L124.522 79.8888L123.355 81.4387C124.289 82.1427 125.427 82.5252 126.597 82.5293Z" fill="#FF395D" stroke="black" stroke-width="4"/>
<path d="M217.92 47.1282L217.929 47.1283L217.938 47.1282C219.227 47.1173 220.47 46.6477 221.444 45.8032C222.418 44.9586 223.058 43.7944 223.25 42.5196C223.442 41.2448 223.172 39.9436 222.489 38.8501C221.806 37.7567 220.756 36.943 219.527 36.5545L219.519 36.552L219.511 36.5496L206.336 32.5032L206.284 32.4871L206.231 32.4739C204.887 32.1406 203.466 32.334 202.26 33.0149L203.243 34.7565L202.26 33.0149C201.054 33.6958 200.154 34.8127 199.747 36.1366C199.34 37.4605 199.456 38.89 200.071 40.1309C200.686 41.3717 201.754 42.3292 203.054 42.8073L203.105 42.8261L203.157 42.8421L216.328 46.8879C216.328 46.8879 216.328 46.8879 216.328 46.8879C216.844 47.0468 217.38 47.1278 217.92 47.1282Z" fill="#FF395D" stroke="black" stroke-width="4"/>
<path d="M166.308 182.178V182.178L166.322 182.178C167.611 182.167 168.854 181.697 169.827 180.853C170.801 180.008 171.442 178.844 171.634 177.569C171.825 176.294 171.555 174.993 170.873 173.9C170.19 172.806 169.139 171.993 167.91 171.604L167.903 171.602L167.895 171.599L154.765 167.567C154.091 167.328 153.376 167.225 152.661 167.264C151.927 167.304 151.209 167.493 150.55 167.819C149.891 168.145 149.305 168.602 148.828 169.162C148.352 169.722 147.994 170.374 147.778 171.077C147.561 171.779 147.49 172.519 147.569 173.25C147.648 173.982 147.876 174.689 148.238 175.329L149.979 174.346L148.238 175.329C148.599 175.97 149.088 176.529 149.673 176.975C150.242 177.408 150.892 177.725 151.584 177.906L164.707 181.936C164.708 181.936 164.709 181.937 164.71 181.937C165.228 182.098 165.767 182.179 166.308 182.178Z" fill="#FF395D" stroke="black" stroke-width="4"/>
<path d="M358.073 166.713L358.081 166.713L358.088 166.713C359.379 166.704 360.624 166.235 361.6 165.39C362.576 164.546 363.218 163.38 363.409 162.104C363.601 160.827 363.33 159.524 362.646 158.43C361.961 157.336 360.908 156.523 359.677 156.136L359.677 156.136L359.665 156.132L346.529 152.098C345.854 151.862 345.139 151.762 344.425 151.804C343.693 151.847 342.978 152.037 342.322 152.365C341.666 152.692 341.083 153.148 340.609 153.707C340.134 154.266 339.779 154.916 339.563 155.616C339.347 156.317 339.276 157.054 339.354 157.783C339.432 158.512 339.657 159.217 340.016 159.856L341.76 158.877L340.016 159.856C340.375 160.496 340.86 161.055 341.441 161.501C342.009 161.937 342.657 162.255 343.347 162.439L356.482 166.472C356.482 166.472 356.482 166.472 356.483 166.473C356.998 166.631 357.534 166.712 358.073 166.713Z" fill="#FF395D" stroke="black" stroke-width="4"/>
<path d="M89.5911 148.168L89.6198 148.169H89.6485C89.799 148.169 89.9507 148.163 90.1017 148.152L90.1168 148.151L90.1318 148.149L109.272 146.443L109.323 146.438L109.374 146.431C110.748 146.237 111.996 145.523 112.859 144.437C113.722 143.35 114.135 141.973 114.012 140.591C113.888 139.208 113.238 137.926 112.197 137.009C111.155 136.093 109.801 135.611 108.415 135.662L108.363 135.664L108.311 135.668L89.1709 137.375L89.1433 137.377L89.1158 137.381C87.7572 137.54 86.5087 138.207 85.6215 139.248C84.7341 140.289 84.2741 141.628 84.3344 142.995C84.3947 144.362 84.9708 145.655 85.9462 146.615C86.9216 147.574 88.2238 148.128 89.5911 148.168Z" fill="#FF395D" stroke="black" stroke-width="4"/>
<g opacity="0.3">
<path opacity="0.3" d="M132.684 104.001C132.684 104.001 144.805 82.2253 178.062 84.112C178.062 84.112 168.549 121.824 158.595 140.926C143.111 133.184 132.147 122.431 132.684 104.001Z" fill="#3D7DB8"/>
</g>
<g opacity="0.3">
<path opacity="0.3" d="M234.459 92.8008C268.496 107.067 288.895 126.954 281.844 151.118C268.912 163.894 251.723 168.695 230.92 166.731C241.38 143.2 244.04 118.732 234.459 92.8008Z" fill="#3D7DB8"/>
</g>
<g opacity="0.2">
<path opacity="0.2" d="M262.874 194.328C265.086 194.383 267.495 194.518 269.16 195.966C271.579 198.082 271.19 202.191 269.143 204.666C267.096 207.14 263.918 208.344 260.84 209.27C245.344 213.899 228.86 214.102 213.254 209.854C209.565 208.843 205.795 207.493 203.155 204.734C200.446 201.89 198.686 195.752 202.861 193.433C207.205 191.017 216.869 193.2 221.738 193.321L262.874 194.328Z" fill="#3380C8"/>
</g>
<g opacity="0.2">
<path opacity="0.2" d="M179.178 186.102C175.81 186.292 172.312 187.953 170.892 191.007C169.574 193.851 170.349 197.367 172.316 199.803C175.593 203.863 182.081 204.855 186.423 201.961C189.692 199.783 192.172 194.566 190.777 190.645C189.296 186.477 183.22 185.874 179.178 186.102Z" fill="#FF395D"/>
</g>
<g opacity="0.3">
<path opacity="0.3" d="M240.331 123.272C240.331 123.272 240.117 129.112 239.775 136.714C238.729 144.723 236.441 154.05 231.958 164.242C204.735 164.526 179.745 155.687 156.168 140.919C163.176 130.011 168.251 118.877 170.993 107.301L171.312 107.176C164.497 136.316 233.534 152.402 240.331 123.272Z" fill="#031223"/>
</g>
<g opacity="0.3">
<path opacity="0.3" d="M24.3736 347.445C24.7761 350.968 25.3381 354.574 27.119 357.642C28.9 360.71 32.1676 363.154 35.7161 362.987C39.0084 362.834 41.8735 360.471 43.531 357.625C45.1885 354.779 45.8473 351.48 46.4834 348.251C47.5011 343.076 48.5225 337.788 47.7916 332.566C47.0606 327.344 44.2411 322.11 39.4508 319.894C35.1522 317.907 26.0976 317.135 23.8192 322.277C21.0642 328.5 23.6255 340.861 24.3736 347.445Z" fill="#1E4776"/>
</g>
<g opacity="0.3">
<path opacity="0.3" d="M24.7058 305.599C26.707 307.235 29.8322 307.305 31.9074 305.758C35.8945 302.777 35.9154 294.266 29.6935 294.525C24.2824 294.751 19.7465 301.539 24.7058 305.599Z" fill="#1E4776"/>
</g>
<g opacity="0.3">
<path opacity="0.3" d="M135.733 312.617C120.143 344.261 88.2877 340.607 73.5922 319.166C97.069 326.631 112.237 325.378 112.78 308.75C113.101 299.008 108.02 289.825 99.767 284.618C71.2473 266.622 55.8379 221.818 55.8379 221.818C55.8379 221.818 96.8488 255.26 124.379 263.93L129.17 281.184C129.17 281.184 137.377 304.158 135.733 312.617Z" fill="#031223"/>
</g>
<g opacity="0.3">
<path opacity="0.3" d="M124.383 263.93L138.547 302.897L155.881 278.816L149.961 273.983L124.383 263.93Z" fill="black"/>
</g>
<g opacity="0.3">
<path opacity="0.3" d="M144.089 299.34C159.443 280.165 200.26 312.765 184.91 331.938L204.751 317.932L223.874 291.536L215.626 289.294L156.677 277.84L144.089 299.34Z" fill="#031223"/>
</g>
<g opacity="0.3">
<path opacity="0.3" d="M198.316 322.471C228.896 315.018 249.58 336.677 224.692 364.93L249.007 344.878L263.29 320.92C253.182 313.089 251.369 302.037 257.078 288.057L223.87 291.534C223.87 291.534 209.055 317.943 198.316 322.471Z" fill="#031223"/>
</g>
<g opacity="0.3">
<path opacity="0.3" d="M235.874 397.89C219.139 406.173 206.657 406.65 198.865 402.356C198.74 402.545 198.626 402.718 198.501 402.888C193.473 398.309 190.093 393.869 189.332 389.615C199.649 404.771 241.129 376.583 230.799 361.428L250.4 343.941C272.47 346.276 271.887 379.473 235.874 397.89Z" fill="#031223"/>
</g>
<g opacity="0.3">
<path opacity="0.3" d="M198.238 405.025L189.706 414.022L187.146 416.714C187.045 416.836 186.935 416.95 186.818 417.055C145.304 458.501 75.6461 449.195 50.5497 408.967H50.5839C37.0465 406.035 26.9665 397.821 19.708 386.175L22.2218 383.994C45.1347 399.059 67.6831 403.491 89.5822 388.674C98.4394 419.858 118.301 430.199 149.01 420.042C159.844 416.456 167.427 406.407 167.408 395.013C167.398 386.585 170.486 379.021 170.486 379.021C151.619 374.506 155.879 354.022 155.879 354.022C133.807 364.77 119.689 361.704 109.098 352.505L102.615 367.185C57.8595 362.174 60.7379 299.334 60.7379 299.334C84.4805 341.531 109.153 345.6 134.616 318.036C136.948 337.02 150.816 343.254 170.486 343.065C169.428 357.959 177.062 367.47 191.213 372.9C186.214 385.993 189.445 396.412 198.238 405.025Z" fill="#031223"/>
</g>
<g opacity="0.3">
<path opacity="0.3" d="M187.147 416.715L186.83 417.057H186.828C186.943 416.951 187.049 416.836 187.147 416.715Z" fill="black"/>
</g>
<g opacity="0.3">
<path opacity="0.3" d="M189.717 414.033C188.876 414.954 188.024 415.84 187.146 416.714L189.706 414.021L189.717 414.033Z" fill="black"/>
</g>
<g opacity="0.25">
<path opacity="0.25" d="M131.877 29.5267C134.63 29.4945 137.463 29.6822 139.956 30.854C142.449 32.0258 144.549 34.3505 144.752 37.0904C144.955 39.8303 143.259 42.3996 141.051 44.0037C138.843 45.6078 136.166 46.4213 133.548 47.2044L104.878 55.7844C100.004 57.2425 93.1217 58.164 91.2591 51.848C89.7554 46.7512 95.7722 42.811 99.2828 40.3005C108.725 33.5408 120.246 29.6595 131.877 29.5267Z" fill="#3380C8"/>
</g>
<g opacity="0.25">
<path opacity="0.25" d="M172.588 31.4564C174.923 32.1751 177.435 33.491 178.037 35.8574C178.688 38.4228 176.738 40.9617 174.513 42.3971C169.681 45.5144 162.956 45.3741 158.26 42.0558C154.786 39.6003 152.293 33.5953 156.918 30.971C160.892 28.7146 168.612 30.2334 172.588 31.4564Z" fill="#3380C8"/>
</g>
</svg>
