<svg width="16" height="16" viewBox="0 0 16 16" fill="none" xmlns="http://www.w3.org/2000/svg">
<path d="M8 6.96271C8.31628 6.91751 8.74884 6.58305 9.29767 5.95932C10.0279 5.12768 10.5279 4.59209 10.7977 4.35254C11.0721 4.11751 11.3465 4 11.6209 4C11.8953 4 12.2465 4 12.6744 4C13.107 4 13.4349 4.18983 13.6581 4.56949C13.886 4.95367 14 5.59096 14 6.48136C14 7.37175 13.5 8.27571 12.5 9.19322C11.5 10.1107 10.7581 10.7616 10.2744 11.1458C9.79535 11.5299 9.32791 11.7853 8.87209 11.9119C8.65814 11.9706 8.42791 12 8.1814 12C8.12093 12 8.06046 11.9977 8 11.9932C7.93953 11.9977 7.87907 12 7.8186 12C7.57209 12 7.34186 11.9706 7.12791 11.9119C6.67209 11.7853 6.20233 11.5299 5.7186 11.1458C5.23953 10.7616 4.5 10.1107 3.5 9.19322C2.5 8.27571 2 7.37175 2 6.48136C2 5.59096 2.11163 4.95367 2.33488 4.56949C2.56279 4.18983 2.8907 4 3.3186 4C3.75116 4 4.10465 4 4.37907 4C4.65349 4 4.92558 4.11751 5.19535 4.35254C5.46977 4.59209 5.97209 5.12768 6.70233 5.95932C7.25116 6.58305 7.68372 6.91751 8 6.96271Z" fill="#3A3A3A"/>
</svg>
