<svg width="21" height="11" viewBox="0 0 21 11" fill="none" xmlns="http://www.w3.org/2000/svg">
<path d="M15.1598 0.0503433C17.8604 0.0671243 19.4592 0.234935 19.9562 0.553776C20.4698 0.855835 20.7515 1.2418 20.8012 1.71167C20.8509 2.18154 20.9089 2.85278 20.9751 3.7254C20.9917 3.92677 21 4.14493 21 4.37986C21 5.16857 20.9006 6.26773 20.7018 7.67735C20.5195 9.07018 19.103 9.88406 16.4521 10.119C13.8178 10.3371 10.529 10.6056 6.5858 10.9245C6.05562 10.9748 5.55858 11 5.09467 11C2.12899 11 0.55503 10.0015 0.372781 8.00458C0.207101 6.00763 0.0828402 4.43021 0 3.27231V3.07094C0 2.03051 0.753846 1.25019 2.26154 0.729977C3.70296 0.243326 6.42012 0 10.413 0C10.8935 0 12.4757 0.0167811 15.1598 0.0503433Z" fill="#EB6458"/>
</svg>
