<svg width="16" height="16" viewBox="0 0 16 16" fill="none" xmlns="http://www.w3.org/2000/svg">
<path d="M9.77515 6.10487C10.8039 6.11118 11.413 6.1743 11.6024 6.29422C11.798 6.40783 11.9053 6.553 11.9243 6.72972C11.9432 6.90645 11.9653 7.15892 11.9905 7.48712C11.9968 7.56286 12 7.64491 12 7.73327C12 8.02992 11.9621 8.44333 11.8864 8.97351C11.817 9.49738 11.2773 9.80349 10.2675 9.89185C9.26391 9.97391 8.01105 10.0749 6.50888 10.1948C6.3069 10.2137 6.11755 10.2232 5.94083 10.2232C4.81105 10.2232 4.21144 9.84767 4.14201 9.09659C4.0789 8.3455 4.03156 7.75221 4 7.31671V7.24097C4 6.84965 4.28718 6.55615 4.86154 6.36049C5.41065 6.17746 6.44576 6.08594 7.96686 6.08594C8.1499 6.08594 8.75266 6.09225 9.77515 6.10487Z" fill="#3A3A3A"/>
</svg>
