<svg width="16" height="16" viewBox="0 0 16 16" fill="none" xmlns="http://www.w3.org/2000/svg">
<path d="M9.57031 2.03125C9.95052 2.05208 10.1641 2.38281 10.2109 3.02344C10.263 3.65885 10.2891 4.00781 10.2891 4.07031C10.2891 4.13281 10.2891 4.26302 10.2891 4.46094C10.2891 4.65885 10.2891 4.94792 10.2891 5.32812V5.34375C10.2891 5.71875 10.4714 5.91667 10.8359 5.9375C11.2005 5.95833 11.763 6.03125 12.5234 6.15625C13.2839 6.27604 13.6641 6.6276 13.6641 7.21094C13.6641 7.78906 13.6641 8.45833 13.6641 9.21875C13.6641 9.97917 13.1172 10.3594 12.0234 10.3594C10.9297 10.3594 10.2604 10.3594 10.0156 10.3594C9.77604 10.3594 9.65625 10.9531 9.65625 12.1406C9.65625 13.3229 9.33594 13.9141 8.69531 13.9141C8.0599 13.9141 7.47656 13.9141 6.94531 13.9141C6.41406 13.9141 6.09375 13.4453 5.98438 12.5078C5.88021 11.5651 5.82812 10.9141 5.82812 10.5547C5.82812 10.1901 5.35677 9.90625 4.41406 9.70312C3.47135 9.49479 3 9.11198 3 8.55469C3 7.9974 3 7.44271 3 6.89062C3 6.33854 3.34896 6.02083 4.04688 5.9375C4.74479 5.84896 5.33594 5.80469 5.82031 5.80469C6.3099 5.80469 6.625 5.21354 6.76562 4.03125C6.91146 2.84896 7.13802 2.21875 7.44531 2.14062C7.7526 2.0625 8.04688 2.01823 8.32812 2.00781C8.43229 2.0026 8.54948 2 8.67969 2C8.89323 2 9.1901 2.01042 9.57031 2.03125Z" fill="#3A3A3A"/>
</svg>
