<svg width="16" height="16" viewBox="0 0 16 16" fill="none" xmlns="http://www.w3.org/2000/svg">
<path d="M8 9.03729C7.68372 9.08249 7.25116 9.41695 6.70233 10.0407C5.97209 10.8723 5.47209 11.4079 5.20233 11.6475C4.92791 11.8825 4.65349 12 4.37907 12C4.10465 12 3.75349 12 3.32558 12C2.89302 12 2.56512 11.8102 2.34186 11.4305C2.11395 11.0463 2 10.409 2 9.51864C2 8.62825 2.5 7.72429 3.5 6.80678C4.5 5.88927 5.24186 5.23842 5.72558 4.85424C6.20465 4.47006 6.67209 4.21469 7.12791 4.08814C7.34186 4.02938 7.57209 4 7.8186 4C7.87907 4 7.93953 4.00226 8 4.00678C8.06046 4.00226 8.12093 4 8.18139 4C8.42791 4 8.65814 4.02938 8.87209 4.08814C9.32791 4.21469 9.79767 4.47006 10.2814 4.85424C10.7605 5.23842 11.5 5.88927 12.5 6.80678C13.5 7.72429 14 8.62825 14 9.51864C14 10.409 13.8884 11.0463 13.6651 11.4305C13.4372 11.8102 13.1093 12 12.6814 12C12.2488 12 11.8953 12 11.6209 12C11.3465 12 11.0744 11.8825 10.8047 11.6475C10.5302 11.4079 10.0279 10.8723 9.29767 10.0407C8.74884 9.41695 8.31628 9.08249 8 9.03729Z" fill="#3A3A3A"/>
</svg>
