<svg width="23" height="26" viewBox="0 0 23 26" fill="none" xmlns="http://www.w3.org/2000/svg">
<path d="M14.1707 0.0681967C14.9907 0.113661 15.4513 0.83541 15.5524 2.23344C15.6647 3.62011 15.7209 4.38164 15.7209 4.51803C15.7209 4.65443 15.7209 4.93858 15.7209 5.37049C15.7209 5.8024 15.7209 6.43322 15.7209 7.26295V7.29705C15.7209 8.11541 16.114 8.54732 16.9004 8.59279C17.6867 8.63825 18.8999 8.79738 20.5399 9.07016C22.18 9.33158 23 10.0988 23 11.3718C23 12.6334 23 14.094 23 15.7534C23 17.4129 21.8205 18.2426 19.4615 18.2426C17.1026 18.2426 15.6591 18.2426 15.1311 18.2426C14.6144 18.2426 14.356 19.5384 14.356 22.1298C14.356 24.7099 13.6652 26 12.2835 26C10.9131 26 9.65495 26 8.50916 26C7.36337 26 6.67253 24.977 6.43663 22.9311C6.21197 20.8739 6.09963 19.4531 6.09963 18.6689C6.09963 17.8732 5.08303 17.2538 3.04982 16.8105C1.01661 16.3558 0 15.5204 0 14.3043C0 13.0881 0 11.8776 0 10.6728C0 9.46798 0.752625 8.77464 2.25788 8.59279C3.76313 8.39956 5.0381 8.30295 6.08278 8.30295C7.13871 8.30295 7.81832 7.0129 8.12161 4.43279C8.43614 1.85268 8.92479 0.477377 9.58755 0.306885C10.2503 0.136393 10.885 0.0397814 11.4916 0.0170492C11.7162 0.00568306 11.969 0 12.2498 0C12.7104 0 13.3507 0.0227322 14.1707 0.0681967Z" fill="#EB6458"/>
</svg>
