<svg width="78" height="78" viewBox="0 0 78 78" fill="none" xmlns="http://www.w3.org/2000/svg">
<path d="M39 78C60.5719 78 78 60.5719 78 39C78 17.4281 60.5719 0 39 0C17.4281 0 0 17.4281 0 39C0 60.5719 17.4281 78 39 78Z" fill="white"/>
<path d="M44.7273 67.7621C40.5836 67.7621 37.6586 66.7871 35.7086 64.8371C33.8805 62.8871 32.9055 60.8152 32.9055 58.4996C32.9055 57.6465 33.0273 57.0371 33.393 56.4277C33.7586 55.8184 34.1242 55.4527 34.7336 55.0871C35.343 54.7215 35.9523 54.5996 36.8055 54.5996C37.6586 54.5996 38.268 54.7215 38.8773 55.0871C39.4867 55.4527 39.8523 55.8184 40.218 56.4277C40.5836 57.0371 40.7055 57.6465 40.7055 58.4996C40.7055 59.4746 40.4617 60.3277 39.9742 60.9371C39.4867 61.5465 38.8773 62.034 38.268 62.1559C38.8773 62.8871 39.7305 63.4965 40.9492 63.8621C42.168 64.2277 43.3867 64.3496 44.6055 64.3496C46.3117 64.3496 47.8961 63.8621 49.2367 63.009C50.5773 62.1559 51.6742 60.6934 52.2836 58.9871C52.893 57.159 53.2586 55.209 53.2586 52.8934C53.2586 50.4559 52.893 48.384 52.1617 46.5559C51.4305 44.7277 50.4555 43.509 49.1148 42.6559C47.7742 41.8027 46.3117 41.4371 44.6055 41.4371C43.5086 41.4371 42.2898 41.9246 40.7055 42.7777L37.9023 44.1184V42.6559L50.8211 25.4715H33.0273V43.3871C33.0273 44.8496 33.393 46.0684 34.0023 47.0434C34.6117 48.0184 35.7086 48.5059 37.0492 48.5059C38.1461 48.5059 39.1211 48.1402 40.0961 47.409C41.0711 46.6777 41.9242 45.8246 42.5336 44.8496C42.6555 44.6059 42.7773 44.484 42.8992 44.484C43.0211 44.3621 43.143 44.3621 43.2648 44.3621C43.5086 44.3621 43.7523 44.484 44.118 44.7277C44.4836 45.0934 44.6055 45.459 44.6055 45.9465C44.6055 46.1902 44.4836 46.434 44.4836 46.7996C43.7523 48.5059 42.7773 49.7246 41.4367 50.5777C40.0961 51.4309 38.7555 51.9184 37.1711 51.9184C33.2711 51.9184 30.5898 51.1871 29.1273 49.6027C27.6648 48.1402 26.9336 45.9465 26.9336 43.3871V25.4715H17.793V22.1809H26.9336V14.6246L24.8617 12.5527V10.7246H30.9555L33.2711 11.9434V22.1809H56.9148L59.2305 24.4965L44.4836 38.8777C45.3367 38.5121 46.3117 38.2684 47.1648 38.2684C48.7492 38.2684 50.4555 38.7559 52.4055 39.7309C54.3555 40.7059 55.9398 42.0465 56.9148 43.7527C58.0117 45.459 58.743 47.0434 58.9867 48.6277C59.3523 50.2121 59.4742 51.5527 59.4742 52.7715C59.4742 55.5746 58.8648 58.134 57.6461 60.5715C56.4273 63.009 54.7211 64.7152 52.2836 65.934C50.0898 67.1527 47.5305 67.7621 44.7273 67.7621Z" fill="#EB6458"/>
</svg>
